<svg width="185" height="40" viewBox="0 0 185 40" fill="none" xmlns="http://www.w3.org/2000/svg">
<path d="M165.427 0H19.5724C8.76287 0 0 8.76287 0 19.5724V19.9035C0 30.713 8.76287 39.4759 19.5724 39.4759H165.427C176.237 39.4759 185 30.713 185 19.9035V19.5724C185 8.76287 176.237 0 165.427 0Z" fill="white"/>
<path d="M17.6764 26.3741L23.2612 13.0316H24.8623L24.6526 14.6708L19.9446 26.3741H17.6764ZM20.0208 23.4578V21.7805H27.9882V23.4578H20.0208ZM30.4471 26.3741H28.1788L23.4708 14.6708L23.2612 13.0316H24.8623L30.4471 26.3741ZM31.4679 26.3741V13.0316H33.6599V26.3741H31.4679ZM32.2494 21.323V19.4551H36.0425C37.0209 19.4551 37.8024 19.2581 38.3869 18.8642C38.9715 18.4703 39.2637 17.9111 39.2637 17.1868C39.2637 16.4498 38.9715 15.8843 38.3869 15.4904C37.8024 15.0838 37.0146 14.8805 36.0234 14.8805H32.1922V13.0316H35.8518C36.7795 13.0316 37.5991 13.1269 38.3107 13.3175C39.0223 13.5081 39.6132 13.7813 40.0833 14.1371C40.5662 14.4929 40.9284 14.925 41.1698 15.4332C41.4239 15.9415 41.551 16.5261 41.551 17.1868C41.551 17.8222 41.4239 18.4004 41.1698 18.9214C40.9157 19.4297 40.5535 19.8617 40.0833 20.2175C39.6132 20.5733 39.0413 20.8465 38.3679 21.0371C37.7071 21.2277 36.9574 21.323 36.1187 21.323H32.2494ZM43.264 26.3741V13.0316H45.4559V26.3741H43.264ZM44.0454 21.323V19.4551H47.8385C48.817 19.4551 49.5985 19.2581 50.183 18.8642C50.7675 18.4703 51.0598 17.9111 51.0598 17.1868C51.0598 16.4498 50.7675 15.8843 50.183 15.4904C49.5985 15.0838 48.8106 14.8805 47.8195 14.8805H43.9883V13.0316H47.6479C48.5756 13.0316 49.3952 13.1269 50.1068 13.3175C50.8184 13.5081 51.4093 13.7813 51.8794 14.1371C52.3623 14.4929 52.7245 14.925 52.9659 15.4332C53.22 15.9415 53.3471 16.5261 53.3471 17.1868C53.3471 17.8222 53.22 18.4004 52.9659 18.9214C52.7117 19.4297 52.3496 19.8617 51.8794 20.2175C51.4093 20.5733 50.8374 20.8465 50.164 21.0371C49.5032 21.2277 48.7535 21.323 47.9148 21.323H44.0454ZM60.5832 26.3741V13.0316H62.7752V26.3741H60.5832ZM61.3647 26.3741V24.5062H65.7487C66.3713 24.5062 66.9304 24.3982 67.426 24.1821C67.9216 23.9661 68.3409 23.6548 68.684 23.2482C69.0271 22.8288 69.2876 22.3205 69.4655 21.7233C69.6561 21.1261 69.7514 20.4462 69.7514 19.6838C69.7514 18.1081 69.3893 16.9136 68.665 16.1004C67.9407 15.2871 66.905 14.8805 65.5581 14.8805H61.3075V13.0316H65.5009C66.5302 13.0316 67.4451 13.1841 68.2456 13.489C69.0462 13.7813 69.726 14.2134 70.2851 14.7852C70.857 15.357 71.289 16.0559 71.5813 16.8819C71.8862 17.7078 72.0387 18.6482 72.0387 19.7029C72.0387 20.7321 71.8862 21.6598 71.5813 22.4857C71.2763 23.3117 70.8379 24.0169 70.2661 24.6015C69.707 25.1733 69.0208 25.6117 68.2075 25.9167C67.407 26.2216 66.5047 26.3741 65.5009 26.3741H61.3647ZM73.7567 19.7029C73.7567 18.6609 73.9092 17.7142 74.2142 16.8628C74.5319 15.9987 74.9703 15.2617 75.5294 14.6518C76.1012 14.0418 76.781 13.5716 77.5689 13.2413C78.3694 12.9109 79.2589 12.7457 80.2374 12.7457C81.2031 12.7457 82.0799 12.9109 82.8678 13.2413C83.6683 13.5716 84.3482 14.0418 84.9073 14.6518C85.4791 15.2617 85.9175 15.9987 86.2225 16.8628C86.5401 17.7142 86.699 18.6609 86.699 19.7029C86.699 20.7448 86.5401 21.6979 86.2225 22.562C85.9175 23.4134 85.4791 24.144 84.9073 24.754C84.3482 25.3639 83.6683 25.8341 82.8678 26.1645C82.0799 26.4948 81.2031 26.66 80.2374 26.66C79.2589 26.66 78.3694 26.4948 77.5689 26.1645C76.781 25.8341 76.1012 25.3639 75.5294 24.754C74.9703 24.144 74.5319 23.4134 74.2142 22.562C73.9092 21.6979 73.7567 20.7448 73.7567 19.7029ZM76.044 19.6838C76.044 20.4335 76.1457 21.1197 76.349 21.7424C76.5523 22.365 76.8319 22.8987 77.1877 23.3435C77.5562 23.7755 77.9946 24.1123 78.5029 24.3537C79.0238 24.5824 79.602 24.6968 80.2374 24.6968C80.8727 24.6968 81.4446 24.5824 81.9529 24.3537C82.4739 24.1123 82.9122 23.7755 83.268 23.3435C83.6366 22.8987 83.9161 22.3714 84.1067 21.7614C84.31 21.1388 84.4117 20.4462 84.4117 19.6838C84.4117 18.9341 84.31 18.2542 84.1067 17.6443C83.9161 17.0216 83.6366 16.4943 83.268 16.0623C82.9122 15.6302 82.4739 15.2935 81.9529 15.052C81.4446 14.8106 80.8727 14.6899 80.2374 14.6899C79.602 14.6899 79.0238 14.8106 78.5029 15.052C77.9946 15.2935 77.5562 15.6302 77.1877 16.0623C76.8319 16.4943 76.5523 17.0216 76.349 17.6443C76.1457 18.2542 76.044 18.9341 76.044 19.6838ZM87.2243 13.0316H89.4735L93.3238 24.7158L93.4572 26.3741H91.8561L87.2243 13.0316ZM97.6125 13.0316L93.4572 26.3741H91.8561L91.9705 24.7158L95.5539 13.0316H97.6125ZM105.923 13.0316L101.31 26.3741H99.6901L99.8426 24.7158L103.674 13.0316H105.923ZM95.5539 13.0316H97.6125L101.196 24.7158L101.31 26.3741H99.6901L95.5539 13.0316ZM106.879 26.3741V13.0316H109.071V26.3741H106.879ZM115.609 26.3741V13.0316H117.801V26.3741H115.609ZM106.879 13.0316H109.071L117.344 25.1733L117.801 26.3741H115.514L107.318 14.3277L106.879 13.0316ZM119.513 26.3741V13.0316H121.705V26.3741H119.513ZM120.904 26.3741V24.5062H128.51V26.3741H120.904ZM129.485 19.7029C129.485 18.6609 129.637 17.7142 129.942 16.8628C130.26 15.9987 130.698 15.2617 131.258 14.6518C131.829 14.0418 132.509 13.5716 133.297 13.2413C134.098 12.9109 134.987 12.7457 135.966 12.7457C136.931 12.7457 137.808 12.9109 138.596 13.2413C139.397 13.5716 140.076 14.0418 140.635 14.6518C141.207 15.2617 141.646 15.9987 141.951 16.8628C142.268 17.7142 142.427 18.6609 142.427 19.7029C142.427 20.7448 142.268 21.6979 141.951 22.562C141.646 23.4134 141.207 24.144 140.635 24.754C140.076 25.3639 139.397 25.8341 138.596 26.1645C137.808 26.4948 136.931 26.66 135.966 26.66C134.987 26.66 134.098 26.4948 133.297 26.1645C132.509 25.8341 131.829 25.3639 131.258 24.754C130.698 24.144 130.26 23.4134 129.942 22.562C129.637 21.6979 129.485 20.7448 129.485 19.7029ZM131.772 19.6838C131.772 20.4335 131.874 21.1197 132.077 21.7424C132.28 22.365 132.56 22.8987 132.916 23.3435C133.284 23.7755 133.723 24.1123 134.231 24.3537C134.752 24.5824 135.33 24.6968 135.966 24.6968C136.601 24.6968 137.173 24.5824 137.681 24.3537C138.202 24.1123 138.64 23.7755 138.996 23.3435C139.365 22.8987 139.644 22.3714 139.835 21.7614C140.038 21.1388 140.14 20.4462 140.14 19.6838C140.14 18.9341 140.038 18.2542 139.835 17.6443C139.644 17.0216 139.365 16.4943 138.996 16.0623C138.64 15.6302 138.202 15.2935 137.681 15.052C137.173 14.8106 136.601 14.6899 135.966 14.6899C135.33 14.6899 134.752 14.8106 134.231 15.052C133.723 15.2935 133.284 15.6302 132.916 16.0623C132.56 16.4943 132.28 17.0216 132.077 17.6443C131.874 18.2542 131.772 18.9341 131.772 19.6838ZM142.804 26.3741L148.388 13.0316H149.99L149.78 14.6708L145.072 26.3741H142.804ZM145.148 23.4578V21.7805H153.116V23.4578H145.148ZM155.574 26.3741H153.306L148.598 14.6708L148.388 13.0316H149.99L155.574 26.3741ZM156.595 26.3741V13.0316H158.787V26.3741H156.595ZM157.377 26.3741V24.5062H161.761C162.383 24.5062 162.942 24.3982 163.438 24.1821C163.934 23.9661 164.353 23.6548 164.696 23.2482C165.039 22.8288 165.3 22.3205 165.477 21.7233C165.668 21.1261 165.763 20.4462 165.763 19.6838C165.763 18.1081 165.401 16.9136 164.677 16.1004C163.953 15.2871 162.917 14.8805 161.57 14.8805H157.319V13.0316H161.513C162.542 13.0316 163.457 13.1841 164.258 13.489C165.058 13.7813 165.738 14.2134 166.297 14.7852C166.869 15.357 167.301 16.0559 167.593 16.8819C167.898 17.7078 168.051 18.6482 168.051 19.7029C168.051 20.7321 167.898 21.6598 167.593 22.4857C167.288 23.3117 166.85 24.0169 166.278 24.6015C165.719 25.1733 165.033 25.6117 164.219 25.9167C163.419 26.2216 162.517 26.3741 161.513 26.3741H157.377Z" fill="black"/>
</svg>
