<svg width="637" height="480" viewBox="0 0 637 480" fill="none" xmlns="http://www.w3.org/2000/svg">
<path d="M300.062 0H54.8988C24.5774 0 0 24.5767 0 54.8981V424.8C0 455.121 24.5774 479.698 54.8988 479.698H582.101C612.422 479.698 637 455.121 637 424.8V277.986L300.062 0Z" fill="white"/>
<path d="M562.287 85.9904H523.87V47.5834H524.62V85.2496H562.287V85.9904Z" fill="white"/>
<path d="M561.108 47.716L523.98 84.8441L524.504 85.3679L561.632 48.2398L561.108 47.716Z" fill="white"/>
<path d="M543.264 114.23C517.005 114.23 495.63 92.8654 495.63 66.5968C495.63 40.3283 516.995 18.9626 543.264 18.9626C569.532 18.9626 590.897 40.3283 590.897 66.5968C590.897 92.8654 569.532 114.23 543.264 114.23ZM543.264 19.7131C517.415 19.7131 496.38 40.7486 496.38 66.5968C496.38 92.4451 517.415 113.48 543.264 113.48C569.112 113.48 590.147 92.4451 590.147 66.5968C590.147 40.7486 569.112 19.7131 543.264 19.7131Z" fill="white"/>
<path d="M89.3231 79.9559C88.9728 80.4962 88.5425 81.0167 88.0322 81.5371C87.5218 82.0574 86.9114 82.5284 86.2009 82.9287C85.4904 83.339 84.6498 83.6591 83.6691 83.8893C82.6884 84.1195 81.5676 84.2392 80.2867 84.2392C78.5455 84.2392 76.9643 83.9388 75.5634 83.3284C74.1524 82.7279 72.9515 81.8673 71.9408 80.7465C70.9301 79.6257 70.1495 78.2852 69.6091 76.7241C69.0587 75.153 68.7886 73.4218 68.7886 71.5104C68.7886 69.5991 69.0488 67.8679 69.5591 66.2968C70.0695 64.7257 70.8 63.3842 71.7406 62.2735C72.6813 61.1627 73.8321 60.302 75.1931 59.6916C76.5541 59.0911 78.0852 58.7808 79.7764 58.7808C81.4675 58.7808 83.0887 59.0214 84.4096 59.5117C85.7306 60.0021 86.7813 60.6821 87.5518 61.5728L85.4604 63.2145C84.7899 62.6141 83.9793 62.1539 83.0387 61.8337C82.098 61.5235 81.0873 61.3627 80.0265 61.3627C78.4454 61.3627 77.1244 61.6434 76.0537 62.2138C74.9829 62.7842 74.1224 63.5345 73.4719 64.4752C72.8215 65.4159 72.3611 66.4969 72.0809 67.7177C71.8007 68.9386 71.6606 70.1988 71.6606 71.4997C71.6606 72.8006 71.8307 74.0618 72.181 75.2826C72.5312 76.5035 73.0716 77.5845 73.8021 78.5252C74.5326 79.4658 75.4433 80.2261 76.5341 80.7865C77.6248 81.3569 78.9257 81.6377 80.4368 81.6377C82.0379 81.6377 83.3589 81.4069 84.3896 80.9566C85.4203 80.5063 86.3309 79.7557 87.1215 78.705L89.3131 79.9265L89.3231 79.9559Z" fill="black"/>
<path d="M91.5246 66.3066C92.085 64.7355 92.8756 63.394 93.8963 62.2832C94.917 61.1724 96.1479 60.3118 97.5789 59.7013C99.0099 59.1009 100.601 58.7915 102.372 58.7915C104.144 58.7915 105.705 59.0909 107.146 59.7013C108.587 60.3017 109.818 61.1624 110.828 62.2832C111.839 63.404 112.62 64.7455 113.18 66.3066C113.74 67.8777 114.02 69.6089 114.02 71.5202C114.02 73.4316 113.74 75.1628 113.18 76.7339C112.62 78.305 111.839 79.6454 110.828 80.7562C109.818 81.867 108.587 82.7277 107.146 83.3381C105.705 83.9386 104.114 84.2489 102.372 84.2489C100.631 84.2489 99.0099 83.9486 97.5789 83.3381C96.1479 82.7377 94.927 81.877 93.8963 80.7562C92.8756 79.6354 92.085 78.295 91.5246 76.7339C90.9642 75.1628 90.684 73.4316 90.684 71.5202C90.684 69.6089 90.9642 67.8777 91.5246 66.3066ZM94.1865 75.6628C94.6168 76.9137 95.2173 77.9951 95.9778 78.8858C96.7483 79.7764 97.6689 80.4665 98.7497 80.9468C99.8305 81.4271 101.031 81.6573 102.362 81.6573C103.693 81.6573 104.894 81.4171 105.985 80.9468C107.076 80.4665 107.996 79.7864 108.757 78.8858C109.507 77.9951 110.098 76.9137 110.518 75.6628C110.938 74.4119 111.148 73.0112 111.148 71.4802C111.148 69.9491 110.938 68.5579 110.518 67.3171C110.098 66.0762 109.517 65.016 108.757 64.1253C108.006 63.2447 107.076 62.5642 105.985 62.0839C104.894 61.6035 103.683 61.3734 102.362 61.3734C101.041 61.3734 99.8305 61.6135 98.7497 62.0839C97.6689 62.5642 96.7483 63.2447 95.9778 64.1253C95.2073 65.006 94.6168 66.0762 94.1865 67.3171C93.7562 68.5579 93.5461 69.9491 93.5461 71.4802C93.5461 73.0112 93.7562 74.4119 94.1865 75.6628Z" fill="black"/>
<path d="M119.825 59.3114L135.926 82.2876L136.346 83.7183H133.554L117.523 60.8525L117.143 59.3212H119.825V59.3114ZM117.143 59.3114H119.825V83.7183H117.143V59.3114ZM133.664 59.3114H136.346V83.7183H133.664V59.3114Z" fill="black"/>
<path d="M139.488 59.3114H157.932V61.7135H139.488V59.3114ZM147.374 59.3114H150.056V83.7183H147.374V59.3114Z" fill="black"/>
<path d="M167.308 59.3114H169.089L168.879 61.8532L159.713 83.7085H156.891L167.318 59.3016L167.308 59.3114ZM160.934 75.5934H175.224V77.7942H160.934V75.5934ZM176.685 83.7183L167.518 61.863L167.308 59.3212H169.089L179.517 83.729H176.695L176.685 83.7183Z" fill="black"/>
<path d="M200.502 79.9559C200.151 80.4962 199.721 81.0167 199.211 81.5371C198.7 82.0574 198.09 82.5284 197.379 82.9287C196.669 83.339 195.828 83.6591 194.848 83.8893C193.867 84.1195 192.746 84.2392 191.465 84.2392C189.724 84.2392 188.143 83.9388 186.742 83.3284C185.331 82.7279 184.13 81.8673 183.119 80.7465C182.109 79.6257 181.328 78.2852 180.788 76.7241C180.237 75.153 179.967 73.4218 179.967 71.5104C179.967 69.5991 180.227 67.8679 180.738 66.2968C181.248 64.7257 181.979 63.3842 182.919 62.2735C183.86 61.1627 185.011 60.302 186.372 59.6916C187.733 59.0911 189.264 58.7808 190.955 58.7808C192.646 58.7808 194.267 59.0214 195.588 59.5117C196.909 60.0021 197.96 60.6821 198.73 61.5728L196.639 63.2145C195.968 62.6141 195.158 62.1539 194.217 61.8337C193.276 61.5235 192.266 61.3627 191.205 61.3627C189.624 61.3627 188.303 61.6434 187.232 62.2138C186.161 62.7842 185.301 63.5345 184.65 64.4752C184 65.4159 183.54 66.4969 183.259 67.7177C182.979 68.9386 182.839 70.1988 182.839 71.4997C182.839 72.8006 183.009 74.0618 183.359 75.2826C183.71 76.5035 184.25 77.5845 184.981 78.5252C185.711 79.4658 186.622 80.2261 187.713 80.7865C188.803 81.3569 190.104 81.6377 191.615 81.6377C193.216 81.6377 194.537 81.4069 195.568 80.9566C196.599 80.5063 197.509 79.7557 198.3 78.705L200.492 79.9265L200.502 79.9559Z" fill="black"/>
<path d="M201.022 59.3114H219.465V61.7135H201.022V59.3114ZM208.897 59.3114H211.579V83.7183H208.897V59.3114Z" fill="black"/>
<path d="M315.453 116.703H55.5793V117.703H315.453V116.703Z" fill="black"/>
<path d="M78.6556 379.398C78.2053 380.028 77.6648 380.488 77.0444 380.798C76.4239 381.108 75.6234 381.258 74.6327 381.258C73.8622 381.258 73.1517 381.128 72.5012 380.878C71.8507 380.628 71.3004 380.268 70.8401 379.797C70.3797 379.327 70.0195 378.777 69.7693 378.126C69.5191 377.476 69.389 376.755 69.389 375.955C69.389 375.154 69.5091 374.384 69.7593 373.734C70.0094 373.083 70.3497 372.523 70.79 372.062C71.2303 371.602 71.7607 371.252 72.3711 371.012C72.9815 370.772 73.652 370.651 74.3725 370.651C75.2531 370.651 76.0337 370.821 76.7042 371.161C77.3746 371.502 77.925 371.953 78.3353 372.513L77.1945 373.253C76.9043 372.852 76.5141 372.553 76.0337 372.362C75.5534 372.172 75.033 372.072 74.4726 372.072C73.9923 372.072 73.5419 372.142 73.1216 372.282C72.7013 372.422 72.3311 372.643 72.0209 372.943C71.7107 373.243 71.4605 373.633 71.2703 374.123C71.0802 374.614 70.9901 375.204 70.9901 375.915C70.9901 376.435 71.0602 376.936 71.1903 377.406C71.3204 377.876 71.5405 378.297 71.8307 378.657C72.1209 379.017 72.5012 379.308 72.9716 379.518C73.4419 379.728 74.0123 379.837 74.6927 379.837C75.2231 379.837 75.7435 379.768 76.2338 379.618C76.7242 379.468 77.1745 379.128 77.5748 378.597L78.6556 379.398Z" fill="black"/>
<path d="M80.8271 373.783C81.0773 373.133 81.4175 372.583 81.8678 372.112C82.3181 371.642 82.8485 371.282 83.469 371.031C84.0894 370.781 84.7799 370.651 85.5404 370.651C86.301 370.651 86.9915 370.781 87.6119 371.031C88.2323 371.282 88.7627 371.642 89.213 372.112C89.6633 372.583 90.0035 373.133 90.2437 373.783C90.4839 374.434 90.604 375.154 90.604 375.955C90.604 376.755 90.4839 377.476 90.2437 378.126C90.0035 378.777 89.6633 379.327 89.213 379.797C88.7627 380.268 88.2323 380.628 87.6119 380.878C86.9915 381.128 86.301 381.258 85.5404 381.258C84.7799 381.258 84.0894 381.128 83.469 380.878C82.8485 380.628 82.3181 380.268 81.8678 379.797C81.4175 379.327 81.0773 378.777 80.8271 378.126C80.5769 377.476 80.4568 376.755 80.4568 375.955C80.4568 375.154 80.5769 374.434 80.8271 373.783ZM82.3081 377.536C82.4782 378.016 82.7084 378.427 83.0086 378.767C83.3088 379.108 83.6791 379.368 84.1094 379.558C84.5397 379.748 85.0201 379.837 85.5404 379.837C86.0608 379.837 86.5211 379.748 86.9514 379.558C87.3817 379.368 87.762 379.108 88.0722 378.767C88.3824 378.427 88.6226 378.016 88.7827 377.536C88.9428 377.056 89.0229 376.526 89.0229 375.935C89.0229 375.345 88.9428 374.834 88.7727 374.364C88.6026 373.894 88.3724 373.483 88.0722 373.153C87.772 372.823 87.4017 372.553 86.9714 372.362C86.5411 372.172 86.0608 372.072 85.5404 372.072C85.0201 372.072 84.5397 372.163 84.1094 372.353C83.6791 372.543 83.3088 372.803 83.0086 373.143C82.7084 373.484 82.4782 373.894 82.3081 374.364C82.138 374.834 82.0579 375.365 82.0579 375.935C82.0579 376.506 82.138 377.056 82.3081 377.536Z" fill="black"/>
<path d="M92.3653 380.958V370.951H93.8463V380.958H92.3653ZM100.191 380.958H98.6897V375.074C98.6897 374.644 98.6296 374.254 98.5196 373.894C98.4095 373.534 98.2494 373.213 98.0493 372.943C97.8491 372.673 97.5989 372.453 97.2987 372.303C96.9985 372.153 96.6583 372.072 96.288 372.072C95.4974 372.072 94.897 372.433 94.4767 373.143C94.0564 373.854 93.8463 374.794 93.8463 375.955H93.526V374.194C93.526 373.663 93.6161 373.173 93.7862 372.733C93.9564 372.293 94.1965 371.922 94.4867 371.612C94.777 371.302 95.1172 371.072 95.4875 370.901C95.8577 370.731 96.248 370.651 96.6482 370.651C97.0886 370.651 97.5189 370.732 97.9492 370.882C98.3795 371.032 98.7497 371.272 99.08 371.592C99.4102 371.913 99.6704 372.323 99.8805 372.813C100.091 373.303 100.191 373.904 100.191 374.595V380.958ZM106.535 380.958H105.034V375.074C105.034 374.644 104.974 374.254 104.864 373.894C104.754 373.534 104.594 373.213 104.394 372.943C104.194 372.673 103.943 372.453 103.643 372.303C103.343 372.153 103.003 372.072 102.632 372.072C101.842 372.072 101.241 372.433 100.821 373.143C100.401 373.854 100.191 374.794 100.191 375.955H99.4903V374.194C99.4903 373.643 99.5803 373.153 99.7604 372.712C99.9406 372.272 100.191 371.903 100.501 371.592C100.811 371.282 101.161 371.052 101.552 370.892C101.942 370.732 102.352 370.651 102.793 370.651C103.233 370.651 103.693 370.721 104.144 370.871C104.594 371.021 104.994 371.251 105.354 371.582C105.715 371.912 106.005 372.342 106.215 372.873C106.425 373.403 106.535 374.054 106.535 374.814V380.958Z" fill="black"/>
<path d="M108.336 384.961V371.112H109.838V384.961H108.336ZM117.953 378.126C117.703 378.777 117.373 379.327 116.943 379.797C116.512 380.268 116.002 380.628 115.411 380.878C114.821 381.128 114.181 381.258 113.5 381.258C112.97 381.258 112.459 381.179 111.979 381.019C111.499 380.859 111.078 380.629 110.708 380.318C110.338 380.008 110.048 379.647 109.838 379.217C109.627 378.787 109.517 378.307 109.517 377.776V374.253C109.517 373.693 109.627 373.193 109.838 372.743C110.048 372.292 110.338 371.922 110.688 371.612C111.038 371.302 111.459 371.072 111.949 370.901C112.439 370.731 112.95 370.651 113.5 370.651C114.181 370.651 114.821 370.781 115.411 371.031C116.002 371.282 116.512 371.642 116.943 372.112C117.373 372.583 117.703 373.133 117.953 373.783C118.203 374.434 118.324 375.154 118.324 375.955C118.324 376.755 118.203 377.476 117.953 378.126ZM116.472 374.364C116.302 373.894 116.072 373.484 115.772 373.143C115.472 372.803 115.111 372.543 114.681 372.353C114.251 372.163 113.78 372.072 113.26 372.072C112.74 372.072 112.289 372.163 111.859 372.353C111.429 372.543 111.068 372.803 110.778 373.143C110.488 373.484 110.258 373.894 110.088 374.364C109.918 374.834 109.838 375.365 109.838 375.935C109.838 376.506 109.918 377.056 110.088 377.536C110.258 378.016 110.488 378.427 110.778 378.767C111.068 379.108 111.429 379.368 111.859 379.558C112.289 379.748 112.75 379.837 113.26 379.837C113.77 379.837 114.251 379.748 114.681 379.558C115.111 379.368 115.472 379.108 115.772 378.767C116.072 378.427 116.302 378.016 116.472 377.536C116.642 377.056 116.722 376.526 116.722 375.935C116.722 375.345 116.642 374.834 116.472 374.364Z" fill="black"/>
<path d="M120.435 373.783C120.685 373.133 121.015 372.583 121.446 372.112C121.876 371.642 122.386 371.282 122.977 371.031C123.567 370.781 124.208 370.651 124.888 370.651C125.449 370.651 125.969 370.732 126.449 370.892C126.93 371.052 127.35 371.282 127.7 371.592C128.05 371.903 128.341 372.273 128.551 372.723C128.761 373.173 128.871 373.674 128.871 374.234V377.756C128.871 378.286 128.761 378.777 128.551 379.207C128.341 379.637 128.05 380.008 127.68 380.318C127.31 380.629 126.89 380.859 126.409 381.019C125.929 381.179 125.419 381.258 124.888 381.258C124.208 381.258 123.567 381.128 122.977 380.878C122.386 380.628 121.876 380.268 121.446 379.797C121.015 379.327 120.685 378.777 120.435 378.126C120.185 377.476 120.065 376.755 120.065 375.955C120.065 375.154 120.185 374.434 120.435 373.783ZM121.916 377.536C122.086 378.016 122.316 378.427 122.617 378.767C122.917 379.108 123.277 379.368 123.707 379.558C124.138 379.748 124.598 379.837 125.108 379.837C125.619 379.837 126.099 379.748 126.529 379.558C126.96 379.368 127.32 379.108 127.61 378.767C127.9 378.427 128.13 378.016 128.301 377.536C128.471 377.056 128.551 376.526 128.551 375.935C128.551 375.345 128.471 374.834 128.301 374.364C128.13 373.894 127.9 373.484 127.61 373.143C127.32 372.803 126.96 372.543 126.529 372.353C126.099 372.163 125.629 372.072 125.108 372.072C124.588 372.072 124.138 372.163 123.707 372.353C123.277 372.543 122.917 372.803 122.617 373.143C122.316 373.484 122.086 373.894 121.916 374.364C121.746 374.834 121.666 375.365 121.666 375.935C121.666 376.506 121.746 377.056 121.916 377.536ZM128.551 370.951H130.052V380.958H128.551V370.951Z" fill="black"/>
<path d="M131.893 380.958V370.951H133.394V380.958H131.893ZM141.1 380.958H139.599V375.074C139.599 374.644 139.529 374.254 139.378 373.894C139.228 373.534 139.028 373.213 138.758 372.943C138.488 372.673 138.168 372.453 137.787 372.303C137.407 372.153 136.987 372.072 136.516 372.072C135.506 372.072 134.725 372.433 134.195 373.143C133.664 373.854 133.394 374.794 133.394 375.955H133.074V374.194C133.074 373.623 133.174 373.113 133.384 372.672C133.594 372.232 133.865 371.862 134.205 371.562C134.545 371.262 134.935 371.032 135.376 370.882C135.816 370.732 136.276 370.651 136.757 370.651C137.347 370.651 137.897 370.731 138.418 370.901C138.938 371.072 139.398 371.332 139.799 371.682C140.199 372.033 140.519 372.493 140.749 373.053C140.98 373.614 141.1 374.294 141.1 375.095V380.958Z" fill="black"/>
<path d="M147.884 381.599C147.604 382.27 147.294 382.85 146.964 383.36C146.634 383.871 146.243 384.271 145.803 384.571C145.363 384.872 144.842 385.022 144.242 385.022C143.832 385.022 143.401 384.941 142.961 384.791C142.521 384.641 142.09 384.411 141.66 384.101L142.28 382.84C142.521 383.05 142.811 383.23 143.141 383.38C143.471 383.53 143.812 383.601 144.162 383.601C144.562 383.601 144.912 383.47 145.203 383.22C145.493 382.97 145.763 382.64 145.993 382.24C146.223 381.839 146.443 381.399 146.634 380.909C146.824 380.418 147.014 379.928 147.204 379.438L150.426 370.951H151.987L148.725 379.497C148.445 380.228 148.165 380.929 147.884 381.599ZM142.2 370.951H143.802L147.965 379.958L147.744 380.819H146.724L142.2 370.951Z" fill="black"/>
<path d="M153.478 379.438C153.668 379.248 153.929 379.157 154.249 379.157C154.569 379.157 154.819 379.257 155.009 379.448C155.2 379.638 155.29 379.897 155.29 380.218C155.29 380.538 155.19 380.789 154.999 380.979C154.809 381.169 154.549 381.258 154.229 381.258C153.909 381.258 153.659 381.158 153.468 380.968C153.278 380.778 153.188 380.518 153.188 380.198C153.188 379.878 153.288 379.628 153.478 379.438Z" fill="black"/>
<path d="M157.051 380.958V370.951H158.532V380.958H157.051ZM164.876 380.958H163.375V375.074C163.375 374.644 163.315 374.254 163.205 373.894C163.095 373.534 162.935 373.213 162.735 372.943C162.535 372.673 162.285 372.453 161.984 372.303C161.684 372.153 161.344 372.072 160.974 372.072C160.183 372.072 159.583 372.433 159.162 373.143C158.742 373.854 158.532 374.794 158.532 375.955H158.212V374.194C158.212 373.663 158.302 373.173 158.472 372.733C158.642 372.293 158.882 371.922 159.172 371.612C159.463 371.302 159.803 371.072 160.173 370.901C160.543 370.731 160.934 370.651 161.334 370.651C161.774 370.651 162.205 370.732 162.635 370.882C163.065 371.032 163.435 371.272 163.766 371.592C164.096 371.913 164.356 372.323 164.566 372.813C164.776 373.303 164.876 373.904 164.876 374.595V380.958ZM171.221 380.958H169.72V375.074C169.72 374.644 169.66 374.254 169.55 373.894C169.44 373.534 169.28 373.213 169.079 372.943C168.879 372.673 168.629 372.453 168.329 372.303C168.029 372.153 167.688 372.072 167.318 372.072C166.528 372.072 165.927 372.433 165.507 373.143C165.087 373.854 164.876 374.794 164.876 375.955H164.176V374.194C164.176 373.643 164.266 373.153 164.446 372.712C164.626 372.272 164.876 371.903 165.187 371.592C165.497 371.282 165.847 371.052 166.237 370.892C166.628 370.732 167.038 370.651 167.478 370.651C167.919 370.651 168.379 370.721 168.829 370.871C169.28 371.021 169.68 371.251 170.04 371.582C170.4 371.912 170.691 372.342 170.901 372.873C171.111 373.403 171.221 374.054 171.221 374.814V380.958Z" fill="black"/>
<path d="M173.322 367.168C173.553 366.938 173.853 366.828 174.223 366.828C174.593 366.828 174.893 366.938 175.124 367.168C175.354 367.399 175.464 367.699 175.464 368.069C175.464 368.44 175.354 368.74 175.124 368.97C174.893 369.201 174.593 369.311 174.223 369.311C173.853 369.311 173.553 369.201 173.322 368.97C173.092 368.74 172.982 368.44 172.982 368.069C172.982 367.699 173.092 367.399 173.322 367.168ZM173.483 370.951H174.964V380.958H173.483V370.951Z" fill="black"/>
<path d="M177.185 380.958V370.951H178.666V380.958H177.185ZM185.011 380.958H183.51V375.074C183.51 374.644 183.45 374.254 183.339 373.894C183.229 373.534 183.069 373.213 182.869 372.943C182.669 372.673 182.419 372.453 182.119 372.303C181.818 372.153 181.478 372.072 181.108 372.072C180.317 372.072 179.717 372.433 179.297 373.143C178.876 373.854 178.666 374.794 178.666 375.955H178.346V374.194C178.346 373.663 178.436 373.173 178.606 372.733C178.776 372.293 179.016 371.922 179.307 371.612C179.597 371.302 179.937 371.072 180.307 370.901C180.678 370.731 181.068 370.651 181.468 370.651C181.908 370.651 182.339 370.732 182.769 370.882C183.199 371.032 183.57 371.272 183.9 371.592C184.23 371.913 184.49 372.323 184.7 372.813C184.911 373.303 185.011 373.904 185.011 374.595V380.958ZM191.355 380.958H189.854V375.074C189.854 374.644 189.794 374.254 189.684 373.894C189.574 373.534 189.414 373.213 189.214 372.943C189.013 372.673 188.763 372.453 188.463 372.303C188.163 372.153 187.823 372.072 187.452 372.072C186.662 372.072 186.061 372.433 185.641 373.143C185.221 373.854 185.011 374.794 185.011 375.955H184.31V374.194C184.31 373.643 184.4 373.153 184.58 372.712C184.76 372.272 185.011 371.903 185.321 371.592C185.631 371.282 185.981 371.052 186.372 370.892C186.762 370.732 187.172 370.651 187.612 370.651C188.053 370.651 188.513 370.721 188.963 370.871C189.414 371.021 189.814 371.251 190.174 371.582C190.535 371.912 190.825 372.342 191.035 372.873C191.245 373.403 191.355 374.054 191.355 374.814V380.958Z" fill="black"/>
<path d="M193.457 367.168C193.687 366.938 193.987 366.828 194.357 366.828C194.727 366.828 195.028 366.938 195.258 367.168C195.488 367.399 195.598 367.699 195.598 368.069C195.598 368.44 195.488 368.74 195.258 368.97C195.028 369.201 194.727 369.311 194.357 369.311C193.987 369.311 193.687 369.201 193.457 368.97C193.226 368.74 193.116 368.44 193.116 368.069C193.116 367.699 193.226 367.399 193.457 367.168ZM193.617 370.951H195.098V380.958H193.617V370.951Z" fill="black"/>
<path d="M206.626 379.398C206.176 380.028 205.635 380.488 205.015 380.798C204.394 381.108 203.594 381.258 202.603 381.258C201.833 381.258 201.122 381.128 200.472 380.878C199.821 380.628 199.271 380.268 198.81 379.797C198.35 379.327 197.99 378.777 197.74 378.126C197.489 377.476 197.359 376.755 197.359 375.955C197.359 375.154 197.479 374.384 197.73 373.734C197.98 373.083 198.32 372.523 198.76 372.062C199.201 371.602 199.731 371.252 200.341 371.012C200.952 370.772 201.622 370.651 202.343 370.651C203.223 370.651 204.004 370.821 204.675 371.161C205.345 371.502 205.895 371.953 206.306 372.513L205.165 373.253C204.875 372.852 204.484 372.553 204.004 372.362C203.524 372.172 203.003 372.072 202.443 372.072C201.963 372.072 201.512 372.142 201.092 372.282C200.672 372.422 200.301 372.643 199.991 372.943C199.681 373.243 199.431 373.633 199.241 374.123C199.051 374.614 198.96 375.204 198.96 375.915C198.96 376.435 199.031 376.936 199.161 377.406C199.291 377.876 199.511 378.297 199.801 378.657C200.091 379.017 200.472 379.308 200.942 379.518C201.412 379.728 201.983 379.837 202.663 379.837C203.193 379.837 203.714 379.768 204.204 379.618C204.695 379.468 205.145 379.128 205.545 378.597L206.626 379.398Z" fill="black"/>
<path d="M217.754 372.273H218.875V375.535C218.875 375.865 218.895 376.175 218.945 376.465C218.995 376.755 219.085 377.006 219.215 377.226C219.345 377.446 219.535 377.616 219.785 377.736C220.035 377.856 220.346 377.916 220.736 377.916C221.046 377.916 221.336 377.876 221.626 377.786C221.917 377.696 222.167 377.546 222.377 377.316C222.587 377.086 222.767 376.776 222.897 376.386C223.027 375.996 223.098 375.495 223.098 374.895C223.098 373.944 222.937 373.073 222.617 372.263C222.297 371.452 221.847 370.761 221.256 370.171C220.666 369.58 219.965 369.12 219.135 368.78C218.304 368.44 217.383 368.27 216.373 368.27C215.362 368.27 214.441 368.44 213.611 368.77C212.78 369.1 212.08 369.571 211.489 370.181C210.899 370.792 210.449 371.522 210.138 372.383C209.828 373.244 209.668 374.204 209.668 375.275C209.668 376.345 209.818 377.306 210.118 378.176C210.419 379.047 210.859 379.788 211.439 380.398C212.02 381.009 212.72 381.479 213.541 381.81C214.361 382.14 215.292 382.299 216.333 382.299C217.183 382.299 217.984 382.169 218.734 381.919C219.485 381.669 220.145 381.289 220.716 380.779L221.536 381.759C220.846 382.359 220.065 382.8 219.195 383.09C218.324 383.38 217.383 383.521 216.353 383.521C215.182 383.521 214.101 383.32 213.131 382.92C212.16 382.519 211.319 381.959 210.629 381.239C209.938 380.518 209.398 379.648 209.008 378.637C208.617 377.627 208.427 376.506 208.427 375.275C208.427 374.044 208.617 372.943 209.008 371.932C209.398 370.922 209.938 370.051 210.629 369.32C211.319 368.59 212.16 368.03 213.131 367.639C214.101 367.249 215.182 367.049 216.373 367.049C217.564 367.049 218.604 367.239 219.585 367.609C220.566 367.979 221.406 368.5 222.097 369.16C222.787 369.821 223.338 370.611 223.728 371.532C224.118 372.452 224.318 373.463 224.318 374.574C224.318 376.045 224.008 377.166 223.398 377.956C222.787 378.747 221.887 379.138 220.716 379.138C219.785 379.138 219.055 378.897 218.534 378.417C218.014 377.936 217.754 377.316 217.754 376.556V372.273ZM213.181 373.974C213.351 373.584 213.571 373.253 213.851 372.973C214.131 372.693 214.451 372.473 214.802 372.322C215.152 372.172 215.522 372.093 215.892 372.093C216.523 372.093 217.013 372.262 217.373 372.613C217.734 372.963 217.914 373.473 217.914 374.154V376.436C217.914 377.076 217.734 377.576 217.363 377.926C216.993 378.276 216.503 378.457 215.892 378.457C215.522 378.457 215.152 378.377 214.802 378.227C214.451 378.077 214.131 377.856 213.851 377.576C213.571 377.296 213.351 376.966 213.181 376.575C213.01 376.185 212.93 375.755 212.93 375.275C212.93 374.794 213.01 374.364 213.181 373.974ZM214.652 376.766C214.982 377.146 215.422 377.336 215.953 377.336C216.483 377.336 216.913 377.146 217.243 376.766C217.574 376.386 217.734 375.885 217.734 375.254C217.734 374.624 217.574 374.144 217.243 373.774C216.913 373.403 216.483 373.213 215.953 373.213C215.422 373.213 214.982 373.403 214.652 373.774C214.321 374.144 214.151 374.644 214.151 375.254C214.151 375.865 214.321 376.386 214.652 376.766Z" fill="black"/>
<path d="M226.49 373.623C226.74 373.003 227.07 372.472 227.501 372.032C227.931 371.592 228.441 371.252 229.032 371.012C229.622 370.772 230.263 370.651 230.943 370.651C231.503 370.651 232.024 370.732 232.504 370.882C232.985 371.032 233.405 371.262 233.755 371.552C234.105 371.843 234.395 372.202 234.606 372.622C234.816 373.043 234.926 373.524 234.926 374.054V377.436C234.926 377.947 234.816 378.397 234.606 378.807C234.395 379.218 234.105 379.568 233.735 379.858C233.365 380.148 232.944 380.378 232.464 380.528C231.984 380.679 231.473 380.758 230.943 380.758C230.263 380.758 229.622 380.639 229.032 380.398C228.441 380.158 227.931 379.818 227.501 379.367C227.07 378.917 226.74 378.387 226.49 377.767C226.24 377.146 226.12 376.455 226.12 375.695C226.12 374.934 226.24 374.244 226.49 373.623ZM228.641 383.901C229.192 384.101 229.832 384.201 230.583 384.201C231.834 384.201 232.824 383.84 233.535 383.13C234.245 382.419 234.606 381.379 234.606 380.018V377.096H236.107V379.918C236.107 380.768 235.997 381.549 235.786 382.249C235.576 382.95 235.246 383.55 234.806 384.05C234.365 384.551 233.795 384.941 233.105 385.211C232.414 385.482 231.584 385.622 230.623 385.622C230.273 385.622 229.922 385.592 229.552 385.542C229.182 385.492 228.822 385.411 228.461 385.301C228.101 385.191 227.741 385.071 227.371 384.921C227 384.771 226.64 384.601 226.28 384.401L227.02 383.12C227.551 383.44 228.091 383.701 228.641 383.901ZM227.971 377.186C228.141 377.637 228.371 378.016 228.671 378.336C228.972 378.657 229.332 378.907 229.762 379.077C230.193 379.247 230.653 379.337 231.163 379.337C231.674 379.337 232.154 379.247 232.584 379.077C233.015 378.907 233.375 378.657 233.665 378.336C233.955 378.016 234.185 377.637 234.355 377.186C234.526 376.736 234.606 376.245 234.606 375.695C234.606 375.145 234.526 374.654 234.355 374.213C234.185 373.773 233.955 373.393 233.665 373.073C233.375 372.753 233.015 372.502 232.584 372.332C232.154 372.162 231.684 372.072 231.163 372.072C230.643 372.072 230.193 372.162 229.762 372.332C229.332 372.502 228.972 372.753 228.671 373.073C228.371 373.393 228.141 373.773 227.971 374.213C227.801 374.654 227.721 375.145 227.721 375.695C227.721 376.245 227.801 376.736 227.971 377.186ZM234.606 370.951H236.107V378.797H234.606V370.951Z" fill="black"/>
<path d="M237.808 380.958V370.951H239.289V380.958H237.808ZM245.633 380.958H244.132V375.074C244.132 374.644 244.072 374.254 243.962 373.894C243.852 373.534 243.692 373.213 243.492 372.943C243.292 372.673 243.042 372.453 242.741 372.303C242.441 372.153 242.101 372.072 241.731 372.072C240.94 372.072 240.34 372.433 239.919 373.143C239.499 373.854 239.289 374.794 239.289 375.955H238.969V374.194C238.969 373.663 239.059 373.173 239.229 372.733C239.399 372.293 239.639 371.922 239.929 371.612C240.22 371.302 240.56 371.072 240.93 370.901C241.3 370.731 241.691 370.651 242.091 370.651C242.531 370.651 242.962 370.732 243.392 370.882C243.822 371.032 244.192 371.272 244.523 371.592C244.853 371.913 245.113 372.323 245.323 372.813C245.533 373.303 245.633 373.904 245.633 374.595V380.958ZM251.978 380.958H250.477V375.074C250.477 374.644 250.417 374.254 250.307 373.894C250.197 373.534 250.037 373.213 249.836 372.943C249.636 372.673 249.386 372.453 249.086 372.303C248.786 372.153 248.445 372.072 248.075 372.072C247.285 372.072 246.684 372.433 246.264 373.143C245.844 373.854 245.633 374.794 245.633 375.955H244.933V374.194C244.933 373.643 245.023 373.153 245.203 372.712C245.383 372.272 245.633 371.903 245.944 371.592C246.254 371.282 246.604 371.052 246.994 370.892C247.385 370.732 247.795 370.651 248.235 370.651C248.676 370.651 249.136 370.721 249.586 370.871C250.037 371.021 250.437 371.251 250.797 371.582C251.157 371.912 251.448 372.342 251.658 372.873C251.868 373.403 251.978 374.054 251.978 374.814V380.958Z" fill="black"/>
<path d="M254.149 373.783C254.4 373.133 254.73 372.583 255.16 372.112C255.59 371.642 256.101 371.282 256.691 371.031C257.282 370.781 257.922 370.651 258.603 370.651C259.163 370.651 259.683 370.732 260.164 370.892C260.644 371.052 261.064 371.282 261.415 371.592C261.765 371.903 262.055 372.273 262.265 372.723C262.475 373.173 262.585 373.674 262.585 374.234V377.756C262.585 378.286 262.475 378.777 262.265 379.207C262.055 379.637 261.765 380.008 261.395 380.318C261.024 380.629 260.604 380.859 260.124 381.019C259.643 381.179 259.133 381.258 258.603 381.258C257.922 381.258 257.282 381.128 256.691 380.878C256.101 380.628 255.59 380.268 255.16 379.797C254.73 379.327 254.4 378.777 254.149 378.126C253.899 377.476 253.779 376.755 253.779 375.955C253.779 375.154 253.899 374.434 254.149 373.783ZM255.63 377.536C255.801 378.016 256.031 378.427 256.331 378.767C256.631 379.108 256.991 379.368 257.422 379.558C257.852 379.748 258.312 379.837 258.823 379.837C259.333 379.837 259.813 379.748 260.244 379.558C260.674 379.368 261.034 379.108 261.325 378.767C261.615 378.427 261.845 378.016 262.015 377.536C262.185 377.056 262.265 376.526 262.265 375.935C262.265 375.345 262.185 374.834 262.015 374.364C261.845 373.894 261.615 373.484 261.325 373.143C261.034 372.803 260.674 372.543 260.244 372.353C259.813 372.163 259.343 372.072 258.823 372.072C258.302 372.072 257.852 372.163 257.422 372.353C256.991 372.543 256.631 372.803 256.331 373.143C256.031 373.484 255.801 373.894 255.63 374.364C255.46 374.834 255.38 375.365 255.38 375.935C255.38 376.506 255.46 377.056 255.63 377.536ZM262.265 370.951H263.766V380.958H262.265V370.951Z" fill="black"/>
<path d="M265.808 367.168C266.038 366.938 266.338 366.828 266.708 366.828C267.079 366.828 267.379 366.938 267.609 367.168C267.839 367.399 267.949 367.699 267.949 368.069C267.949 368.44 267.839 368.74 267.609 368.97C267.379 369.201 267.079 369.311 266.708 369.311C266.338 369.311 266.038 369.201 265.808 368.97C265.577 368.74 265.467 368.44 265.467 368.069C265.467 367.699 265.577 367.399 265.808 367.168ZM265.968 370.951H267.449V380.958H265.968V370.951Z" fill="black"/>
<path d="M269.71 380.958V365.948H271.211V380.958H269.71Z" fill="black"/>
<path d="M273.303 379.438C273.493 379.248 273.753 379.157 274.073 379.157C274.394 379.157 274.644 379.257 274.834 379.448C275.024 379.638 275.114 379.897 275.114 380.218C275.114 380.538 275.014 380.789 274.824 380.979C274.634 381.169 274.374 381.258 274.054 381.258C273.733 381.258 273.483 381.158 273.293 380.968C273.103 380.778 273.013 380.518 273.013 380.198C273.013 379.878 273.113 379.628 273.303 379.438Z" fill="black"/>
<path d="M286.182 379.398C285.732 380.028 285.191 380.488 284.571 380.798C283.95 381.108 283.15 381.258 282.159 381.258C281.389 381.258 280.678 381.128 280.028 380.878C279.377 380.628 278.827 380.268 278.367 379.797C277.906 379.327 277.546 378.777 277.296 378.126C277.046 377.476 276.916 376.755 276.916 375.955C276.916 375.154 277.036 374.384 277.286 373.734C277.536 373.083 277.876 372.523 278.316 372.062C278.757 371.602 279.287 371.252 279.898 371.012C280.508 370.772 281.179 370.651 281.899 370.651C282.78 370.651 283.56 370.821 284.231 371.161C284.901 371.502 285.452 371.953 285.862 372.513L284.721 373.253C284.431 372.852 284.041 372.553 283.56 372.362C283.08 372.172 282.56 372.072 281.999 372.072C281.519 372.072 281.068 372.142 280.648 372.282C280.228 372.422 279.858 372.643 279.547 372.943C279.237 373.243 278.987 373.633 278.797 374.123C278.607 374.614 278.517 375.204 278.517 375.915C278.517 376.435 278.587 376.936 278.717 377.406C278.847 377.876 279.067 378.297 279.357 378.657C279.647 379.017 280.028 379.308 280.498 379.518C280.968 379.728 281.539 379.837 282.219 379.837C282.75 379.837 283.27 379.768 283.76 379.618C284.251 379.468 284.701 379.128 285.101 378.597L286.182 379.398Z" fill="black"/>
<path d="M288.354 373.783C288.604 373.133 288.944 372.583 289.394 372.112C289.845 371.642 290.375 371.282 290.995 371.031C291.616 370.781 292.306 370.651 293.067 370.651C293.827 370.651 294.518 370.781 295.138 371.031C295.759 371.282 296.289 371.642 296.74 372.112C297.19 372.583 297.53 373.133 297.77 373.783C298.01 374.434 298.131 375.154 298.131 375.955C298.131 376.755 298.01 377.476 297.77 378.126C297.53 378.777 297.19 379.327 296.74 379.797C296.289 380.268 295.759 380.628 295.138 380.878C294.518 381.128 293.827 381.258 293.067 381.258C292.306 381.258 291.616 381.128 290.995 380.878C290.375 380.628 289.845 380.268 289.394 379.797C288.944 379.327 288.604 378.777 288.354 378.126C288.103 377.476 287.983 376.755 287.983 375.955C287.983 375.154 288.103 374.434 288.354 373.783ZM289.835 377.536C290.005 378.016 290.235 378.427 290.535 378.767C290.835 379.108 291.206 379.368 291.636 379.558C292.066 379.748 292.547 379.837 293.067 379.837C293.587 379.837 294.048 379.748 294.478 379.558C294.908 379.368 295.288 379.108 295.599 378.767C295.909 378.427 296.149 378.016 296.309 377.536C296.469 377.056 296.549 376.526 296.549 375.935C296.549 375.345 296.469 374.834 296.299 374.364C296.129 373.894 295.899 373.483 295.599 373.153C295.299 372.823 294.928 372.553 294.498 372.362C294.068 372.172 293.587 372.072 293.067 372.072C292.547 372.072 292.066 372.163 291.636 372.353C291.206 372.543 290.835 372.803 290.535 373.143C290.235 373.484 290.005 373.894 289.835 374.364C289.664 374.834 289.584 375.365 289.584 375.935C289.584 376.506 289.664 377.056 289.835 377.536Z" fill="black"/>
<path d="M299.892 380.958V370.951H301.373V380.958H299.892ZM307.717 380.958H306.216V375.074C306.216 374.644 306.156 374.254 306.046 373.894C305.936 373.534 305.776 373.213 305.576 372.943C305.376 372.673 305.125 372.453 304.825 372.303C304.525 372.153 304.185 372.072 303.815 372.072C303.024 372.072 302.424 372.433 302.003 373.143C301.583 373.854 301.373 374.794 301.373 375.955H301.053V374.194C301.053 373.663 301.143 373.173 301.313 372.733C301.483 372.293 301.723 371.922 302.013 371.612C302.303 371.302 302.644 371.072 303.014 370.901C303.384 370.731 303.774 370.651 304.175 370.651C304.615 370.651 305.045 370.732 305.476 370.882C305.906 371.032 306.276 371.272 306.606 371.592C306.937 371.913 307.197 372.323 307.407 372.813C307.617 373.303 307.717 373.904 307.717 374.595V380.958ZM314.062 380.958H312.561V375.074C312.561 374.644 312.501 374.254 312.391 373.894C312.281 373.534 312.12 373.213 311.92 372.943C311.72 372.673 311.47 372.453 311.17 372.303C310.869 372.153 310.529 372.072 310.159 372.072C309.368 372.072 308.768 372.433 308.348 373.143C307.927 373.854 307.717 374.794 307.717 375.955H307.017V374.194C307.017 373.643 307.107 373.153 307.287 372.712C307.467 372.272 307.717 371.903 308.027 371.592C308.338 371.282 308.688 371.052 309.078 370.892C309.469 370.732 309.879 370.651 310.319 370.651C310.759 370.651 311.22 370.721 311.67 370.871C312.12 371.021 312.521 371.251 312.881 371.582C313.241 371.912 313.531 372.342 313.742 372.873C313.952 373.403 314.062 374.054 314.062 374.814V380.958Z" fill="black"/>
<path d="M71.9408 405.496L75.8336 411.45L74.6227 412.24L71.5105 407.337C71.0802 408.828 70.4998 409.989 69.7593 410.83C69.0187 411.671 68.1681 412.131 67.1874 412.211V410.739C67.968 410.609 68.6284 410.099 69.1688 409.188C69.7092 408.288 70.1195 407.107 70.3997 405.646C70.6799 404.195 70.82 402.574 70.83 400.793L72.301 400.852C72.301 402.503 72.181 404.055 71.9408 405.496ZM78.8257 412.951H77.3846V406.356H74.1724V404.996H77.3846V400.482H78.8257V412.951Z" fill="black"/>
<path d="M88.5025 406.757V407.878H93.1558V410.859H83.8492V411.74H93.3759V412.821H82.4282V409.839H91.7348V408.959H82.3982V407.878H87.0715V406.757H81.5676V405.636H94.0164V406.757H88.5025ZM83.8292 404.435C82.8185 404.065 82.3181 403.495 82.3181 402.704C82.3181 401.914 82.8185 401.353 83.8292 400.993C84.8399 400.623 86.1609 400.442 87.792 400.442C89.4232 400.442 90.7441 400.623 91.7548 400.993C92.7655 401.353 93.2659 401.934 93.2659 402.704C93.2659 403.475 92.7655 404.065 91.7548 404.435C90.7441 404.795 89.4232 404.985 87.792 404.985C86.1609 404.985 84.8399 404.805 83.8292 404.435ZM84.92 401.833C84.1795 402.034 83.7992 402.324 83.7992 402.714C83.7992 403.104 84.1695 403.394 84.91 403.594C85.6505 403.785 86.6112 403.885 87.782 403.885C88.9528 403.885 89.9135 403.785 90.654 403.594C91.3945 403.404 91.7648 403.104 91.7648 402.714C91.7648 402.324 91.3945 402.034 90.644 401.833C89.9035 401.643 88.9428 401.543 87.772 401.543C86.6012 401.543 85.6505 401.643 84.9 401.833H84.92Z" fill="black"/>
<path d="M108.497 407.307V408.458H96.0478V407.307H108.497ZM96.8083 409.579H107.626V412.961H106.165V410.739H96.8083V409.568V409.579ZM107.776 406.157H96.9484V400.642H107.656V401.753H98.3895V402.864H107.456V403.925H98.3895V405.046H107.776V406.157Z" fill="black"/>
<path d="M118.143 406.287H111.038V400.713H112.449V402.263H116.742V400.713H118.143V406.287ZM122.567 411.671V412.791H111.649V409.568H120.825V408.548H111.619V407.427H122.256V410.64H113.08V411.68H122.567V411.671ZM116.742 405.116V403.405H112.449V405.116H116.742ZM120.815 405.326H118.784V404.125H120.815V402.814H118.784V401.614H120.815V400.493H122.256V406.736H120.815V405.315V405.326Z" fill="black"/>
<path d="M130.082 405.976L134.105 411.35L132.934 412.181L129.622 407.658C129.151 409.049 128.551 410.139 127.8 410.93C127.05 411.72 126.189 412.151 125.218 412.211V410.75C126.029 410.62 126.719 410.109 127.3 409.198C127.88 408.287 128.331 407.107 128.631 405.646C128.931 404.185 129.091 402.574 129.101 400.802L130.572 400.863C130.552 402.804 130.392 404.515 130.072 405.986L130.082 405.976ZM136.626 400.493V412.951H135.185V400.493H136.626Z" fill="black"/>
<path d="M149.596 405.886C148.325 406.687 146.564 407.087 144.322 407.087V405.836C146.123 405.836 147.524 405.536 148.535 404.966C149.546 404.395 150.046 403.554 150.046 402.443V402.023H144.322V400.802H151.497V402.204C151.497 403.855 150.867 405.086 149.596 405.886ZM154.009 408.358C154.979 408.778 155.47 409.439 155.47 410.339C155.47 411.24 154.979 411.91 154.009 412.32C153.038 412.731 151.737 412.951 150.126 412.951C148.515 412.951 147.214 412.741 146.243 412.32C145.273 411.9 144.782 411.24 144.782 410.339C144.782 409.439 145.273 408.768 146.243 408.358C147.214 407.947 148.515 407.727 150.126 407.727C151.737 407.727 153.038 407.937 154.009 408.358ZM152.888 411.4C153.588 411.17 153.939 410.82 153.939 410.339C153.939 409.859 153.588 409.518 152.878 409.278C152.167 409.038 151.257 408.919 150.126 408.919C148.995 408.919 148.095 409.038 147.384 409.278C146.674 409.518 146.323 409.869 146.323 410.339C146.323 410.81 146.674 411.16 147.384 411.39C148.095 411.62 149.005 411.74 150.136 411.74C151.267 411.74 152.197 411.62 152.898 411.4H152.888ZM157.031 404.425H155.28V407.297H153.839V400.482H155.28V403.035H157.031V404.425Z" fill="black"/>
<path d="M165.767 406.367C165.067 406.467 164.276 406.516 163.395 406.516H158.912V400.722H160.373V405.266H163.485C164.336 405.266 165.097 405.216 165.787 405.116C166.478 405.016 167.018 404.886 167.418 404.706V405.957C167.028 406.127 166.478 406.256 165.777 406.356L165.767 406.367ZM159.333 407.878H169.75V412.801H159.333V407.878ZM160.784 411.57H168.309V409.119H160.784V411.57ZM171.501 404.155H169.75V407.117H168.309V400.493H169.75V402.754H171.501V404.155Z" fill="black"/>
<path d="M185.401 408.879H179.837V413.241H178.346V408.879H172.942V407.507H185.391V408.879H185.401ZM183.009 402.143H173.773V400.783H184.51V406.476H183.009V402.143Z" fill="black"/>
<path d="M197.549 405.886C196.279 406.687 194.517 407.087 192.276 407.087V405.836C194.077 405.836 195.478 405.536 196.489 404.966C197.499 404.395 198 403.554 198 402.443V402.023H192.276V400.802H199.451V402.204C199.451 403.855 198.82 405.086 197.549 405.886ZM201.963 408.358C202.933 408.778 203.424 409.439 203.424 410.339C203.424 411.24 202.933 411.91 201.963 412.32C200.992 412.731 199.691 412.951 198.08 412.951C196.469 412.951 195.168 412.741 194.197 412.32C193.226 411.9 192.736 411.24 192.736 410.339C192.736 409.439 193.226 408.768 194.197 408.358C195.168 407.947 196.469 407.727 198.08 407.727C199.691 407.727 200.992 407.937 201.963 408.358ZM200.842 411.4C201.542 411.17 201.893 410.82 201.893 410.339C201.893 409.859 201.542 409.518 200.832 409.278C200.121 409.038 199.211 408.919 198.08 408.919C196.949 408.919 196.048 409.038 195.338 409.278C194.627 409.518 194.277 409.869 194.277 410.339C194.277 410.81 194.627 411.16 195.338 411.39C196.048 411.62 196.959 411.74 198.09 411.74C199.221 411.74 200.151 411.62 200.852 411.4H200.842ZM204.985 404.425H203.234V407.297H201.792V400.482H203.234V403.035H204.985V404.425Z" fill="black"/>
<path d="M213.711 406.367C213.01 406.467 212.22 406.516 211.339 406.516H206.856V400.722H208.317V405.266H211.429C212.28 405.266 213.04 405.216 213.731 405.116C214.421 405.016 214.962 404.886 215.362 404.706V405.957C214.972 406.127 214.421 406.256 213.721 406.356L213.711 406.367ZM207.286 407.878H217.704V412.801H207.286V407.878ZM208.727 411.57H216.253V409.119H208.727V411.57ZM219.455 404.155H217.704V407.117H216.263V400.493H217.704V402.754H219.455V404.155Z" fill="black"/>
<path d="M224.298 410.93C224.829 410.93 225.359 410.89 225.869 410.81C226.38 410.73 226.83 410.609 227.2 410.449V411.72C226.84 411.88 226.38 412.001 225.829 412.081C225.279 412.161 224.709 412.211 224.138 412.211H221.276V400.942H226.66V402.223H222.687V410.92H224.288L224.298 410.93ZM232.884 412.951H231.513V406.867H229.482V412.731H228.111V400.562H229.482V405.506H231.513V400.482H232.884V412.951Z" fill="black"/>
<path d="M247.825 411.029V412.36H235.376V411.029H240.83V408.678H236.207V404.185H245.573V402.233H236.207V400.953H247.004V405.436H237.648V407.408H247.195V408.688H242.301V411.04H247.815L247.825 411.029Z" fill="black"/>
<path d="M258.132 408.619C257.372 408.619 256.681 408.448 256.051 408.118C255.42 407.788 254.93 407.327 254.56 406.736C254.189 406.146 254.009 405.456 254.009 404.675C254.009 403.895 254.199 403.194 254.57 402.584C254.94 401.974 255.45 401.503 256.091 401.173C256.731 400.843 257.452 400.673 258.232 400.673C259.013 400.673 259.733 400.843 260.384 401.173C261.034 401.503 261.545 401.974 261.915 402.584C262.285 403.194 262.475 403.895 262.475 404.675C262.475 405.236 262.385 405.776 262.195 406.276C262.005 406.776 261.725 407.317 261.345 407.888L258.182 412.631H256.431L259.383 408.338C258.993 408.518 258.573 408.619 258.132 408.619ZM256.811 402.364C256.401 402.594 256.081 402.914 255.851 403.325C255.621 403.735 255.51 404.175 255.51 404.675C255.51 405.176 255.621 405.636 255.851 406.037C256.071 406.437 256.391 406.757 256.811 406.997C257.222 407.227 257.702 407.347 258.252 407.347C258.803 407.347 259.293 407.227 259.703 406.997C260.114 406.767 260.434 406.447 260.664 406.037C260.884 405.626 261.004 405.176 261.004 404.675C261.004 404.175 260.894 403.725 260.664 403.325C260.444 402.925 260.124 402.604 259.703 402.364C259.293 402.134 258.803 402.013 258.252 402.013C257.702 402.013 257.232 402.134 256.811 402.364Z" fill="black"/>
<path d="M266.208 412.49C265.578 412.21 265.087 411.81 264.737 411.31C264.387 410.8 264.217 410.229 264.217 409.589C264.217 409.039 264.337 408.548 264.587 408.128C264.837 407.708 265.147 407.368 265.517 407.117C265.888 406.857 266.278 406.687 266.658 406.597C266.328 406.497 266.008 406.327 265.698 406.077C265.387 405.827 265.127 405.516 264.927 405.145C264.727 404.765 264.617 404.355 264.617 403.885C264.617 403.304 264.777 402.764 265.087 402.284C265.407 401.794 265.848 401.413 266.408 401.123C266.969 400.833 267.619 400.692 268.349 400.692C269.08 400.692 269.71 400.833 270.271 401.123C270.831 401.413 271.272 401.803 271.592 402.294C271.912 402.784 272.062 403.314 272.062 403.895C272.062 404.365 271.962 404.786 271.752 405.156C271.552 405.526 271.292 405.836 270.981 406.086C270.671 406.337 270.351 406.506 270.021 406.606C270.411 406.696 270.791 406.867 271.171 407.127C271.542 407.387 271.862 407.727 272.102 408.138C272.342 408.548 272.472 409.038 272.472 409.599C272.472 410.239 272.292 410.809 271.942 411.32C271.592 411.82 271.101 412.221 270.471 412.501C269.841 412.781 269.13 412.921 268.329 412.921C267.529 412.921 266.808 412.781 266.178 412.501L266.208 412.49ZM269.74 411.35C270.141 411.17 270.451 410.91 270.671 410.58C270.891 410.25 271.001 409.889 271.001 409.488C271.001 409.088 270.891 408.708 270.661 408.378C270.431 408.048 270.121 407.787 269.71 407.597C269.3 407.407 268.86 407.317 268.359 407.317C267.859 407.317 267.399 407.407 266.998 407.597C266.598 407.787 266.278 408.048 266.048 408.378C265.818 408.708 265.708 409.078 265.708 409.488C265.708 409.899 265.818 410.25 266.038 410.58C266.258 410.91 266.568 411.16 266.969 411.35C267.369 411.53 267.839 411.63 268.359 411.63C268.88 411.63 269.35 411.54 269.75 411.35H269.74ZM269.53 405.646C269.871 405.476 270.141 405.235 270.331 404.935C270.521 404.635 270.621 404.295 270.621 403.925C270.621 403.555 270.531 403.234 270.341 402.944C270.151 402.643 269.891 402.413 269.55 402.233C269.21 402.063 268.82 401.973 268.369 401.973C267.699 401.973 267.149 402.153 266.738 402.523C266.318 402.884 266.108 403.345 266.108 403.905C266.108 404.276 266.208 404.616 266.398 404.916C266.588 405.226 266.858 405.466 267.199 405.646C267.539 405.826 267.929 405.916 268.369 405.916C268.81 405.916 269.2 405.827 269.54 405.657L269.53 405.646Z" fill="black"/>
<path d="M274.834 405.185C276.675 405.185 278.106 404.936 279.147 404.465C280.188 403.995 280.698 403.274 280.698 402.294V402.004H274.834V400.793H282.149V402.063C282.149 403.534 281.499 404.625 280.198 405.336C278.897 406.046 277.106 406.396 274.844 406.396V405.185H274.834ZM275.464 409.499H284.581V408.418H275.434V407.277H286.012V410.58H276.906V411.661H286.322V412.801H275.464V409.499ZM284.571 400.493H286.012V406.597H284.571V400.493Z" fill="black"/>
<path d="M295.659 402.304H293.237V400.963H297.19V412.651H295.659V402.304Z" fill="black"/>
<path d="M300.332 411.65L304.475 407.487C305.215 406.736 305.746 406.106 306.066 405.596C306.386 405.086 306.546 404.626 306.546 404.205C306.546 403.525 306.336 402.994 305.906 402.604C305.476 402.223 304.895 402.023 304.155 402.023C303.644 402.023 303.214 402.134 302.844 402.364C302.484 402.594 302.203 402.894 302.013 403.274C301.823 403.654 301.733 404.065 301.733 404.515H300.202C300.202 403.805 300.362 403.155 300.692 402.574C301.023 401.994 301.483 401.523 302.083 401.183C302.684 400.832 303.384 400.663 304.175 400.663C304.965 400.663 305.636 400.812 306.226 401.103C306.817 401.393 307.267 401.803 307.587 402.344C307.907 402.874 308.068 403.494 308.068 404.185C308.068 404.795 307.887 405.406 307.517 406.006C307.147 406.607 306.506 407.377 305.606 408.298L302.544 411.3H308.468V412.631H300.342V411.64L300.332 411.65Z" fill="black"/>
<path d="M311.63 414.122H310.429L310.899 410.819H312.361L311.63 414.122Z" fill="black"/>
<path d="M324.399 410.009H318.505V408.708L324.049 400.963H325.86V408.708H327.771V410.009H325.86V412.651H324.399V410.009ZM324.399 408.708V402.634L320.076 408.708H324.399Z" fill="black"/>
<path d="M341.751 406.537V407.687H329.302V406.537H341.751ZM335.197 404.024C334.576 404.515 333.776 404.886 332.815 405.156C331.844 405.426 330.844 405.566 329.803 405.586V404.445C330.954 404.415 332.024 404.215 333.025 403.845C334.026 403.474 334.646 402.974 334.896 402.344H330.033V401.223H334.786V400.002H336.257V401.223H341.001V402.344H336.388C336.317 402.614 336.207 402.875 336.047 403.115L341.271 404.505L340.941 405.596L335.187 404.015L335.197 404.024ZM339.51 409.268C340.52 409.599 341.021 410.129 341.021 410.88C341.021 411.63 340.52 412.17 339.51 412.49C338.499 412.821 337.168 412.981 335.517 412.981C333.866 412.981 332.545 412.811 331.534 412.481C330.523 412.15 330.013 411.61 330.013 410.88C330.013 410.149 330.513 409.589 331.524 409.268C332.535 408.938 333.856 408.778 335.517 408.778C337.178 408.778 338.499 408.938 339.51 409.268ZM338.379 411.63C339.129 411.48 339.5 411.23 339.5 410.88C339.5 410.53 339.119 410.28 338.369 410.12C337.618 409.959 336.668 409.889 335.517 409.889C334.366 409.889 333.415 409.97 332.665 410.12C331.914 410.28 331.534 410.53 331.534 410.88C331.534 411.23 331.904 411.48 332.655 411.63C333.405 411.781 334.356 411.86 335.517 411.86C336.678 411.86 337.628 411.781 338.379 411.63Z" fill="black"/>
</svg>
