<svg width="39" height="39" viewBox="0 0 39 39" fill="none" xmlns="http://www.w3.org/2000/svg">
<path d="M36.96 7.4104C36.96 4.41161 34.529 1.97993 31.5303 1.97974H7.57031C4.57141 1.97974 2.13965 4.41149 2.13965 7.4104V31.3704C2.13988 34.3691 4.57155 36.8 7.57031 36.8H31.5303C34.5289 36.7999 36.9597 34.369 36.96 31.3704V7.4104ZM38.5596 31.3704C38.5593 35.2526 35.4125 38.3995 31.5303 38.3997H7.57031C3.68789 38.3997 0.54027 35.2527 0.540039 31.3704V7.4104C0.540039 3.52784 3.68775 0.380127 7.57031 0.380127H31.5303C35.4127 0.380325 38.5596 3.52796 38.5596 7.4104V31.3704Z" fill="white"/>
<path d="M28.8051 19.3903C28.8051 14.279 24.6615 10.1355 19.5502 10.1354C14.4388 10.1354 10.2953 14.2789 10.2953 19.3903C10.2955 24.5015 14.4389 28.6452 19.5502 28.6452C24.6613 28.645 28.8049 24.5014 28.8051 19.3903ZM30.515 19.3903C30.5148 25.4458 25.6057 30.355 19.5502 30.3551C13.4945 30.3551 8.58454 25.4459 8.58435 19.3903C8.58435 13.3345 13.4944 8.42446 19.5502 8.42446C25.6059 8.42459 30.515 13.3346 30.515 19.3903Z" fill="white"/>
<path d="M31.2599 9.98993C32.4639 9.98993 33.4398 9.01391 33.4398 7.80993C33.4398 6.60595 32.4639 5.62993 31.2599 5.62993C30.0559 5.62993 29.0798 6.60595 29.0798 7.80993C29.0798 9.01391 30.0559 9.98993 31.2599 9.98993Z" fill="white"/>
</svg>
