<svg width="702" height="277" viewBox="0 0 702 277" fill="none" xmlns="http://www.w3.org/2000/svg">
  <style>
    .animated-path {
      stroke-dasharray: 1000;
      stroke-dashoffset: 1000;
      animation: draw 2s ease-out forwards;
    }

    @keyframes draw {
      to {
        stroke-dashoffset: 0;
      }
    }
  </style>
<path class="animated-path" opacity="0.43" d="M263.12 252.7C214 263.76 168.03 270.94 128.29 273.56C59.0996 278.13 17.1396 268.47 10.1196 246.37C3.10964 224.26 31.8296 192.18 90.9996 156.03C130.3 132.02 179.89 108.18 235.35 86.4199C235.21 85.9699 235.06 85.5096 234.93 85.0596C179.36 106.86 129.66 130.75 90.2697 154.82C30.4897 191.35 1.53966 224.01 8.76966 246.8C14.8497 265.96 45.8297 276.08 97.0797 276.08C106.8 276.08 117.25 275.72 128.39 274.98C168.23 272.35 214.32 265.16 263.55 254.06C263.4 253.61 263.26 253.15 263.13 252.7H263.12Z" fill="white"/>
<path opacity="0.43" d="M693.239 29.6602C686.009 6.87022 643.529 -3.13947 573.619 1.48053C568.429 1.82053 563.119 2.25006 557.719 2.75006C557.949 3.19006 558.159 3.63991 558.369 4.08991C575.169 2.53991 590.799 1.75006 604.989 1.75006C653.819 1.75006 685.819 10.9997 691.879 30.0997C704.819 70.8797 595.219 143.1 439.069 200.51C439.199 200.97 439.329 201.43 439.449 201.9C506.169 177.4 565.929 149.65 611.739 121.66C671.519 85.1402 700.469 52.4697 693.239 29.6798V29.6602Z" fill="white"/>
<path opacity="0.43" d="M261.259 244.82C208.989 252.82 160.309 256.88 118.779 256.5C49.4394 255.88 8.31938 243.1 2.97938 220.53C-6.15062 181.93 91.7794 124.25 233.639 79.7402C233.539 79.2702 233.459 78.8003 233.369 78.3203C178.669 95.4603 129.419 114.9 89.7494 135.23C27.3994 167.18 -3.91063 197.58 1.59937 220.85C7.10937 244.12 48.7094 257.28 118.769 257.91C120.539 257.93 122.319 257.93 124.119 257.93C164.549 257.93 211.389 253.87 261.509 246.2C261.419 245.73 261.349 245.27 261.259 244.8V244.82Z" fill="white"/>
<path opacity="0.43" d="M700.4 55.5902C694.9 32.3202 653.289 19.1607 583.229 18.5307C576.729 18.4707 570.049 18.5203 563.219 18.6703C563.319 19.1403 563.41 19.6007 563.49 20.0707C568.54 19.9507 573.489 19.8901 578.319 19.8901C647.439 19.8901 693.35 31.9503 699.02 55.9203C704.36 78.4903 673.309 108.331 611.599 139.951C565.349 163.651 506.05 186.151 440.25 205.191C440.35 205.651 440.46 206.12 440.55 206.58C506.48 187.5 565.9 164.96 612.25 141.21C674.6 109.26 705.91 78.8602 700.4 55.5902Z" fill="white"/>
</svg>


