<svg width="581" height="796" viewBox="0 0 581 796" fill="none" xmlns="http://www.w3.org/2000/svg">
<path d="M47.6184 155.931C48.0588 154.16 46.7976 152.038 44.6155 150.846C41.8128 147.803 40.8619 145.181 40.3514 143.769C40.021 142.838 39.8009 142.228 39.1202 142.228C38.4395 142.228 38.1793 142.738 37.0682 144.9C36.4476 146.111 35.5067 147.943 34.1254 150.396L33.835 150.906L43.054 158.103L43.2542 158.123C43.5044 158.143 43.7446 158.153 43.9749 158.153C46.7576 158.153 47.4382 156.602 47.6084 155.931H47.6184Z" stroke="white" stroke-miterlimit="10"/>
<path d="M28.2795 141.647C28.4597 141.647 28.6599 141.617 28.8601 141.557L29.0102 141.517L29.1303 141.417C29.7509 140.877 30.5217 140.616 31.5727 140.616C32.5336 140.616 33.6247 140.837 34.6657 141.047C35.7668 141.267 36.8979 141.497 37.9689 141.497C38.5395 141.497 39.05 141.437 39.5105 141.297L39.6306 141.267L39.7306 141.196C42.193 139.425 43.3041 137.443 42.7636 135.761C42.2831 134.26 40.5615 133.369 38.1691 133.369C37.6887 133.369 37.1681 133.409 36.6376 133.479C35.1962 132.258 33.7749 131.647 32.4035 131.647C28.79 131.647 26.4778 136.052 26.4778 139.085C26.4778 139.776 26.5979 140.336 26.8381 140.776C27.1585 141.347 27.669 141.657 28.2896 141.657L28.2795 141.647Z" stroke="white" stroke-miterlimit="10"/>
<path d="M58.4892 218.322V216.951C54.9457 216.951 53.3642 219.373 53.3642 221.785C53.3642 222.846 53.6645 223.866 54.2151 224.657C54.8457 225.558 55.7365 226.059 56.7275 226.049V224.678C56.0468 224.678 55.5964 224.238 55.3461 223.867C54.9658 223.317 54.7456 222.556 54.7456 221.785C54.7456 220.114 55.7365 218.322 58.4992 218.322H58.4892Z" stroke="white" stroke-miterlimit="10"/>
<path d="M67.608 230.413C67.9683 230.983 68.5789 231.304 69.3197 231.304C71.3016 231.304 73.9842 229.192 75.6058 227.11C77.1973 225.078 77.8479 223.076 77.4475 221.474L77.3975 221.264L77.2273 221.124C76.1263 220.184 75.1253 219.772 74.3245 219.442C72.9632 218.882 72.4027 218.652 72.3426 216.33L72.3125 215.119L71.2916 215.769C70.4508 216.309 69.2396 216.951 68.3087 216.951H68.1886C67.7782 216.951 67.5779 217.16 67.4879 217.341C67.2877 217.731 67.5179 218.061 67.628 218.221C67.8482 218.542 68.5089 219.483 69.3297 222.215C67.3277 226.389 66.7672 229.072 67.608 230.433V230.413Z" stroke="white" stroke-miterlimit="10"/>
<path d="M31.5329 487.763L32.0333 487.472C33.6449 486.542 39.1302 482.548 38.5396 480.345C38.3995 479.845 37.939 479.234 36.5177 479.234C35.827 479.234 34.9361 479.365 33.8251 479.635L33.3246 479.755L33.3046 480.275C33.2846 480.756 32.674 481.336 32.0834 481.897C30.8822 483.038 29.0705 484.75 31.1725 487.312L31.5429 487.763H31.5329Z" stroke="white" stroke-miterlimit="10"/>
<path d="M70.8211 179.774L70.7611 179.724L70.691 179.684C66.7372 177.672 64.8454 176.921 63.7243 176.921C62.423 176.921 62.0926 177.912 61.8524 178.633C61.382 180.034 60.6012 182.377 52.073 182.417H51.8628C51.8628 182.417 47.5486 185.439 46.2974 186.32C45.877 186.11 45.4766 186.001 45.1162 186.001C44.3655 186.001 43.7849 186.481 43.6248 187.252C43.3846 188.343 44.0151 189.964 45.2864 190.675C45.3064 190.725 45.3064 190.744 45.3064 190.744C45.2964 190.794 45.1662 190.925 45.0962 190.985C44.926 191.155 44.5657 191.495 44.7158 191.996C44.876 192.506 45.4165 192.667 46.2873 192.807C46.5776 193.047 46.908 193.167 47.2583 193.167C47.919 193.167 48.4495 192.717 48.8699 192.356C48.9599 192.276 49.0801 192.176 49.1802 192.096C49.1802 192.116 49.2002 192.146 49.2102 192.166C49.0901 192.576 49.03 192.967 49.2603 193.287C49.4104 193.497 49.6506 193.608 49.9108 193.608C50.121 193.608 50.2912 193.538 50.4814 193.468C50.6316 193.408 50.8017 193.338 50.9319 193.338C51.1521 193.338 51.4424 193.868 51.5825 195.059L51.6426 195.52L52.093 195.64C52.6034 195.77 53.124 195.84 53.6245 195.84C56.5773 195.84 58.7795 193.587 60.9015 191.405C62.6532 189.603 64.3148 187.912 66.2567 187.462C69.4498 186.831 72.4827 185.981 73.0133 183.959C73.3436 182.697 72.6229 181.326 70.8011 179.764L70.8211 179.774Z" stroke="white" stroke-miterlimit="10"/>
<path d="M11.8638 643.584C13.095 641.332 13.2852 639.159 12.3943 637.548C12.5545 636.186 11.5135 635.506 10.7327 635.005C10.3023 634.725 9.89187 634.464 9.69168 634.134L9.5916 633.975L9.43141 633.895C8.46047 633.394 7.81989 633.163 7.33942 633.163C6.7989 633.163 6.53866 633.454 6.41854 633.624C5.98813 634.275 6.38847 635.215 6.99906 636.637C7.67972 638.228 8.61063 640.41 7.87992 641.511C7.51957 642.052 6.72882 642.373 5.51765 642.443C6.34845 642.203 6.74883 641.712 6.94903 641.272C7.81987 639.39 5.888 636.357 4.7569 635.016L4.7269 634.976L4.69684 634.945C4.52668 634.795 4.28645 634.034 4.1363 633.574C3.77595 632.453 3.42563 631.402 2.52476 631.402C1.77403 631.402 1.30356 632.193 0.943206 632.974L0.903189 633.074L0.873131 633.314C0.23251 638.229 0.412702 641.061 1.45371 642.243C1.80405 642.643 2.26451 642.863 2.78502 642.873C2.61485 643.063 2.47469 643.303 2.50472 643.624C2.55477 644.344 3.33555 644.634 4.15634 644.935C4.3165 644.995 4.54668 645.075 4.73686 645.156C4.43657 645.316 3.86603 645.576 2.81502 645.906L1.77403 646.246L2.53478 647.037C3.34556 647.878 4.35652 648.318 5.45759 648.318C8.10015 648.318 10.6426 645.866 11.8838 643.584H11.8638Z" stroke="white" stroke-miterlimit="10"/>
<path d="M28.6602 562.355C29.3309 561.714 29.9214 561.164 29.6512 560.493C29.4109 559.903 28.7203 559.803 27.9896 559.793C27.6292 559.002 26.9886 558.872 26.5982 558.872C26.0177 558.872 25.4371 559.142 24.8765 559.412C24.6763 559.512 24.4662 559.602 24.286 559.672C23.2149 558.892 22.224 558.501 21.3231 558.501C20.2721 558.501 19.4313 559.061 19.0309 560.022C18.4904 561.334 18.7706 563.486 20.6324 565.358C21.5533 566.459 23.3451 566.789 25.0767 567.099C26.348 567.33 27.9295 567.62 27.9896 568.171C27.9095 569.402 28.2899 570.543 29.0606 571.374C29.6812 572.035 30.502 572.435 31.2528 572.435C32.0035 572.435 32.574 572.084 32.9043 571.474C33.3848 570.583 33.4649 568.781 31.1326 565.288L30.9624 565.038L30.6622 564.987C27.7894 564.547 27.5191 563.937 27.4991 563.867C27.399 563.536 28.2398 562.735 28.6502 562.355H28.6602Z" stroke="white" stroke-miterlimit="10"/>
<path d="M290.074 629.65L289.213 630.631C288.632 631.301 288.212 631.301 288.082 631.301C287.461 631.301 286.74 630.741 285.98 630.151C285.059 629.43 284.008 628.609 282.787 628.609C282.166 628.609 281.555 628.829 280.975 629.25L280.685 629.47L280.705 629.84C280.715 630.05 280.625 630.371 280.535 630.691C280.354 631.332 280.144 632.062 280.565 632.673C280.815 633.033 281.225 633.254 281.796 633.324C281.906 633.394 281.936 633.554 281.746 634.315C281.616 634.835 281.475 635.386 281.806 635.816C281.916 635.957 282.156 636.187 282.617 636.187C282.807 636.187 283.027 636.147 283.287 636.067L283.507 635.996L283.638 635.806C284.138 635.085 285.409 634.915 286.63 634.755C288.012 634.565 289.443 634.374 290.134 633.343C290.554 632.723 290.624 631.943 290.374 630.932L290.054 629.67L290.074 629.65Z" stroke="white" stroke-miterlimit="10"/>
<path d="M346.588 592.424C346.057 592.424 345.487 592.714 344.836 593.054C344.646 593.154 344.456 593.255 344.256 593.355C346.207 588.651 345.587 583.886 344.976 579.262C344.636 576.649 344.286 573.946 344.386 571.273L344.406 570.883L344.075 570.673C343.305 570.173 342.544 569.922 341.823 569.922C340.522 569.922 339.401 570.773 338.81 572.184C338.2 573.666 338.21 575.778 339.251 577.359C339.111 577.429 338.96 577.499 338.82 577.579C334.416 579.791 329.411 582.294 329.221 585.828C329.151 587.139 329.732 588.43 331.003 589.732C328.921 589.221 326.969 588.971 325.177 588.971C318.901 588.971 316.218 591.993 315.177 593.795C313.806 596.168 313.736 598.991 314.987 601.153C316.058 603.005 317.97 604.065 320.232 604.065C322.094 604.065 324.146 603.374 326.328 602.023L326.418 601.963L326.488 601.873C327.239 600.962 327.619 600.832 327.71 600.812C328.27 601.372 327.88 605.497 326.979 607.048C323.716 607.269 322.575 609.071 322.595 610.582C322.625 612.324 324.096 613.734 325.878 613.734C326.348 613.734 326.969 613.645 327.679 613.304C327.259 615.497 328.22 616.608 328.841 617.339C329.041 617.569 329.281 617.859 329.271 617.969C329.231 618.199 328.761 618.83 326.058 620.401L322.615 622.403L326.528 621.673C337.489 619.621 339.771 618.489 340.162 617.138C340.452 616.137 339.591 615.346 338.77 614.575C337.959 613.824 337.039 612.974 337.059 611.963C337.069 611.102 337.739 610.091 339.04 608.97L339.231 608.81L339.271 608.569C339.561 606.878 339.791 606.368 339.901 606.217C340.091 606.287 340.482 606.568 340.802 606.788C341.743 607.469 343.174 608.49 345.307 608.87L345.517 608.91L345.707 608.82C346.288 608.559 346.678 608.149 346.878 607.599C347.359 606.227 346.428 604.376 345.527 602.584C345.267 602.074 345.006 601.553 344.796 601.083C344.896 601.093 344.996 601.102 345.106 601.102C347.719 601.102 347.939 596.648 347.949 595.797C348.089 594.186 347.959 593.335 347.519 592.855C347.279 592.595 346.968 592.464 346.608 592.464L346.588 592.424Z" stroke="white" stroke-miterlimit="10"/>
<path d="M304.458 601.392C303.427 601.392 302.386 601.723 301.355 602.374C300.003 601.223 298.412 600.572 296.9 600.572C295.389 600.572 294.358 601.223 294.328 602.154C294.308 602.885 294.908 604.146 299.152 604.446C299.413 604.586 299.743 604.816 299.753 605.136C299.753 605.437 299.473 605.917 298.792 606.288L297.391 607.048L298.902 607.539C300.574 608.08 301.024 608.87 301.715 610.082C302.125 610.802 302.596 611.623 303.406 612.514L303.577 612.693L303.817 612.724C304.037 612.754 304.257 612.774 304.478 612.774C306.269 612.774 307.811 611.683 308.051 610.221C308.151 609.601 308.001 608.85 307.39 608.24C308.581 607.599 308.992 606.457 308.952 605.476C308.852 603.505 307.03 601.392 304.468 601.392H304.458Z" stroke="white" stroke-miterlimit="10"/>
<path d="M282.276 607.409C282.727 607.409 283.117 607.228 283.367 606.898C283.527 606.688 283.687 606.358 283.677 605.837C284.608 605.667 285.519 605.337 285.81 604.546C286.21 603.465 285.189 602.353 284.108 601.182C283.848 600.892 283.577 600.602 283.327 600.311L283.187 600.152L282.987 600.091C282.576 599.981 282.166 599.921 281.766 599.921C279.644 599.921 278.312 601.483 278.092 603.014C277.892 604.415 278.583 606.327 281.175 607.108C281.575 607.298 281.946 607.398 282.276 607.398V607.409Z" stroke="white" stroke-miterlimit="10"/>
<path d="M255.33 603.605C248.794 603.605 244.67 602.443 243.068 600.141C241.347 597.679 242.678 594.076 243.739 591.183C244.59 588.851 245.27 587.009 244.46 585.848C244.049 585.258 243.329 584.967 242.298 584.967C240.966 584.967 238.934 585.467 236.081 586.488L236.022 586.508L235.961 586.538C229.936 590.152 230.376 603.154 232.608 611.222C233.319 613.795 235.331 619.79 238.524 619.79C240.516 619.79 242.127 617.558 243.459 612.974C243.989 612.564 244.46 612.353 244.81 612.353C246.021 612.353 246.652 615.226 247.152 617.538C247.573 619.47 247.973 621.303 248.764 622.213L248.944 622.424L249.224 622.443C250.255 622.533 251.216 622.573 252.077 622.573C261.336 622.573 261.476 617.428 261.676 609.631C261.716 607.969 261.766 606.077 261.907 604.065L261.957 603.274L261.166 603.335C259.054 603.505 257.092 603.585 255.33 603.585V603.605Z" stroke="white" stroke-miterlimit="10"/>
<path d="M356.427 565.048C355.606 565.048 354.405 565.478 353.364 567.54L353.224 567.831L353.354 568.121C353.665 568.842 354.015 569.873 354.385 570.954C355.657 574.687 356.437 576.799 357.729 576.799C358.79 576.799 359.39 575.518 359.861 572.225C360.551 570.163 359.911 567.91 358.97 566.589C358.259 565.598 357.358 565.048 356.427 565.048Z" stroke="white" stroke-miterlimit="10"/>
<path d="M262.216 598.991C260.094 592.294 258.773 591.363 257.662 591.363C256.55 591.363 255.83 592.615 255.249 593.726C255.119 593.966 254.959 594.286 254.809 594.506C254.779 594.446 254.749 594.376 254.719 594.286C255.92 591.723 256.22 590.011 255.62 589.05C255.319 588.57 254.819 588.31 254.198 588.31C252.537 588.31 249.994 590.292 248.643 592.634C247.502 594.606 247.362 596.538 248.252 598.08C249.714 600.612 253.748 601.893 260.244 601.893C260.654 601.893 261.075 601.893 261.535 601.873C261.896 601.853 262.987 601.783 263.247 600.962C263.487 600.222 262.847 599.531 262.206 598.981L262.216 598.991Z" stroke="white" stroke-miterlimit="10"/>
<path d="M450.149 407.825C449.378 407.825 448.497 408.185 447.436 408.956C446.445 409.727 445.254 411.179 443.873 412.85C441.27 416.023 438.027 419.967 435.434 419.967C434.333 419.967 433.393 419.206 432.562 417.634L432.512 417.544L432.442 417.475C429.489 414.522 428.057 412.59 428.177 411.719C428.237 411.299 428.768 410.998 429.639 410.538C433.362 408.556 436.405 405.483 429.399 391.93C426.576 379.968 429.299 370.949 432.191 361.41C435.525 350.369 438.978 338.959 433.302 322.633L433.142 322.162H432.652C431.13 322.192 429.529 322.213 428.057 322.213C427.016 322.213 426.055 322.203 425.154 322.173C433.673 311.102 437.957 297.709 437.897 282.314C437.847 267.74 434.073 251.314 426.386 232.095C412.182 196.621 386.897 157.753 362.454 120.166C333.726 76.0035 306.59 34.283 299.323 1.51123L299.142 0.700875L298.382 1.03127C286.7 6.08617 286.37 8.50848 287.151 14.7545C287.451 17.1469 287.821 20.1199 287.361 24.1738C278.552 49.5284 261.616 53.0211 244.63 53.0211C238.684 53.0211 232.368 52.5106 226.252 52.0201C219.956 51.5197 213.449 50.9889 207.143 50.9889C198.555 50.9889 191.708 51.9503 185.642 54.0123C182.339 51.3998 175.492 50.8393 170.247 50.8393C153.221 50.8393 125.294 57.1556 123.092 65.5538C122.691 67.0652 123.122 68.5268 124.313 69.9281C123.722 69.768 123.152 69.6877 122.601 69.6877C118.467 69.6877 115.865 74.232 111.921 81.1187C108.327 87.3947 103.413 95.9828 95.0545 105.322C90.2999 108.925 87.3271 110.227 85.3552 111.098C81.6716 112.709 81.7017 113.129 82.2422 120.206C82.4224 122.569 82.6726 125.792 82.8728 130.136L82.9328 131.357L83.9438 130.676C85.5553 129.585 86.2261 129.386 86.5063 129.366C86.6064 129.826 86.1959 131.257 85.9157 132.228C85.3852 134.1 84.7747 136.232 85.2752 137.673C87.6174 143.669 86.8967 147.092 84.3743 152.497L84.114 153.049L84.6245 153.368C91.5712 157.693 92.9025 159.454 93.1528 159.965C93.1127 159.965 93.0627 159.965 92.9926 159.965C91.2409 159.965 86.3362 157.843 84.2441 154.94C83.3833 153.739 83.123 152.578 83.4734 151.487C84.5544 148.964 84.9949 143.859 83.2532 141.196C82.5725 140.155 81.6116 139.605 80.4704 139.605C79.5095 139.605 78.4285 140.006 77.2173 140.806C76.9671 140.987 76.6467 141.076 76.2163 141.076C75.1353 141.076 73.6638 140.486 72.2525 139.916C70.751 139.315 69.3297 138.745 68.1485 138.745C67.0274 138.745 65.6561 139.275 65.556 141.777V141.838V141.897C65.7361 143.209 65.9063 144.47 66.0765 145.671C65.3057 143.339 64.3548 141.507 63.6341 140.296C60.381 134.901 55.4662 131.278 51.3823 131.278C49.3803 131.278 47.7487 132.138 46.6377 133.78C43.7549 138.054 44.8559 147.173 49.7407 159.485C47.028 160.235 45.7368 161.336 45.9069 162.757C46.1772 165.12 50.8317 166.952 54.6554 166.952C56.1168 166.952 57.368 166.692 58.369 166.191L58.5092 166.121L58.6092 165.991C58.8094 165.721 58.9996 165.571 59.1298 165.571C59.4 165.571 59.8805 166.061 60.2709 166.451C60.9415 167.122 61.6923 167.892 62.7132 167.892C63.0035 167.892 63.2938 167.823 63.5741 167.703L63.7843 167.602L63.8944 167.392C66.4368 162.587 67.3577 158.134 67.3978 154.22C70.3206 171.186 72.9431 173.798 77.1272 174.379C75.876 175.07 75.1052 175.93 74.6448 176.731C73.4937 178.733 73.874 180.815 74.5547 181.986C75.1152 182.957 75.9561 183.518 76.857 183.518C77.4375 183.518 78.2683 183.277 79.0891 182.236C79.2693 182.326 79.3994 182.396 79.4895 182.446C79.2593 182.597 78.8989 182.777 78.5986 182.937C76.3465 184.088 72.1624 186.24 73.804 192.356L73.8941 192.697L74.2244 192.827C76.917 193.858 78.4385 194.869 78.7388 195.81C78.969 196.531 78.4485 197.311 77.8479 198.212C77.1673 199.233 76.3965 200.384 76.7268 201.726C76.9971 202.847 77.9681 203.828 79.7698 204.809L80.2802 205.088C80.2802 205.088 83.3933 201.115 83.4533 201.035C83.8037 201.095 84.3042 201.135 85.0249 201.185C86.146 201.275 89.0987 201.496 89.5392 202.016L89.329 202.687C88.9687 202.877 88.5983 203.077 88.2079 203.277L88.0578 203.357L87.9577 203.497C86.1459 206.09 85.6154 208.222 86.3361 210.003C87.7074 213.397 93.3029 214.488 98.7181 215.539C102.572 216.29 106.566 217.07 108.037 218.602C108.087 218.992 108.037 219.123 108.037 219.123C108.037 219.123 107.977 219.152 107.807 219.152C107.417 219.152 106.816 219.002 106.185 218.832C105.334 218.612 104.364 218.362 103.443 218.362C101.511 218.362 100.34 219.452 99.9593 221.604C99.8492 222.015 99.7791 222.505 99.699 223.026C99.4288 224.878 99.1285 226.319 98.0775 226.489C97.0565 226.269 96.8963 225.428 96.9163 223.696C96.9263 222.845 96.9364 222.115 96.496 221.665C96.2858 221.455 96.0155 221.344 95.6952 221.344C95.3148 221.344 94.8644 221.515 94.2839 221.885C92.2319 220.524 90.1298 219.813 88.1779 219.813C84.6545 219.813 82.5424 222.025 82.5324 224.167C82.5324 226.049 84.244 228.251 89.0387 228.462C88.9586 229.373 88.0277 229.923 86.3061 230.733C84.224 231.714 81.3813 233.056 83.0429 236.739L83.083 236.819L83.1331 236.89C83.4233 237.26 83.8937 237.44 84.5644 237.44C85.235 237.44 86.116 237.25 86.8867 237.05C85.3852 239.232 84.8748 240.863 85.3852 241.904C85.7556 242.665 86.5663 243.056 87.7975 243.056C87.8876 243.056 87.9777 243.056 88.0678 243.056H88.328L88.5183 242.865C94.2939 237.24 97.8272 234.508 99.3087 234.508C99.7291 234.508 99.9092 234.747 100.31 235.398C100.74 236.109 101.341 237.079 102.752 237.079C103.823 237.079 105.204 236.499 107.096 235.268C107.847 234.868 108.257 234.798 108.437 234.798C108.598 234.798 108.698 234.797 108.698 235.148C108.698 236.279 107.206 238.592 105.485 238.592C105.355 238.592 105.224 238.582 105.104 238.552H105.064L105.024 238.541C104.624 238.511 104.233 238.501 103.853 238.501C100.62 238.501 98.0875 239.553 96.3158 241.635C93.9535 244.417 93.1027 249.122 93.9936 254.527L94.0536 254.867L94.3639 255.027C96.2658 255.998 98.1176 256.478 100.019 256.478C101.131 256.478 102.081 256.318 102.922 256.188C103.543 256.088 104.083 255.998 104.544 255.998C105.224 255.998 105.645 256.188 106.035 256.678L106.315 257.029L106.746 256.909C108.778 256.339 109.038 253.636 109.258 251.253C109.469 248.961 109.699 247.339 110.64 247.339C110.68 247.339 110.71 247.339 110.75 247.339C109.509 249.972 111.14 253.285 112.361 255.767C112.832 256.728 113.472 258.03 113.432 258.451C113.392 258.451 113.322 258.47 113.222 258.47C112.752 258.47 111.991 258.29 110.94 257.92L110.82 257.88H110.69C109.619 257.92 108.858 258 108.698 258.671C108.548 259.331 109.158 259.652 109.809 260.002C109.989 260.092 110.179 260.202 110.349 260.302C109.729 260.612 107.597 260.643 106.526 260.663C104.264 260.703 103.253 260.743 102.852 261.373L102.682 261.633L102.772 261.934C104.524 267.829 111.24 274.396 118.067 274.386C119.458 274.386 120.8 274.106 122.041 273.555L122.331 273.425L122.421 273.114C123.212 270.382 123.282 268.68 123.322 267.549C123.362 266.438 123.402 266.248 123.752 266.008C124.323 265.627 125.674 265.277 128.137 264.627C128.777 264.456 129.498 264.266 130.309 264.056C130.049 264.716 129.078 265.097 127.356 265.578C125.995 265.948 124.813 266.278 124.603 267.259C124.443 268.02 125.004 268.71 125.614 269.261C125.164 272.604 123.662 274.536 122.751 275.697C122.461 276.067 122.211 276.388 122.051 276.698C116.055 277.759 111.07 279.862 109.839 283.175C109.128 285.087 109.689 287.108 111.521 289.21C110.399 289 109.729 288.91 109.258 288.91C108.918 288.91 108.428 288.96 108.127 289.361C107.787 289.821 107.947 290.342 108.127 290.942C108.398 291.823 108.798 293.134 108.177 295.046C107.376 295.756 107.076 297.088 106.786 298.369C106.656 298.97 106.436 299.941 106.215 300.191C106.125 300.151 105.905 300.02 105.525 299.6C104.884 298.669 104.914 298.389 104.904 298.389C104.954 298.319 105.224 298.209 105.395 298.129C106.065 297.839 107.176 297.358 107.236 295.756V295.516L107.096 295.326C105.765 293.545 105.695 289.081 105.635 285.137C105.555 279.842 105.485 275.267 102.682 275.267C101.861 275.267 100.9 275.737 99.7491 276.718C100.78 273.235 100.7 270.272 99.4989 268.05C98.2277 265.688 95.7553 264.156 92.1418 263.505C90.27 262.404 88.5683 261.844 87.1069 261.844C81.8818 261.844 80.7508 268.561 80.1402 272.164C80.0701 272.565 79.9999 273.005 79.9199 273.385C79.6596 272.734 79.2793 271.623 78.7188 269.781C79.8799 267.909 79.8798 265.728 78.6887 263.456C75.936 258.18 67.1175 253.215 63.3638 253.215C62.0826 253.215 61.5921 253.786 61.4119 254.266C61.0216 255.307 61.3219 257.409 68.4388 263.685L68.599 263.826L68.8091 263.846C70.1905 264.006 70.7911 264.506 70.771 264.927C70.741 265.357 70.1805 265.807 69.3797 265.807C68.8592 265.807 68.2986 265.617 67.7581 265.257L67.7281 265.237L67.6981 265.217C67.3577 265.037 66.637 264.136 66.0565 263.406C64.8253 261.854 63.6541 260.392 62.493 260.392C61.6222 260.392 61.0516 261.103 60.8014 262.514L60.7413 262.885L61.0116 263.135C63.464 265.417 70.701 272.183 71.9722 277.709C70.9913 277.609 70.5008 276.658 69.8301 275.137C69.5899 274.596 69.3496 274.035 69.0594 273.575C67.7581 271.262 66.617 270.182 65.4859 270.182C63.0035 270.182 62.1627 275.056 61.2819 280.211C60.9115 282.353 60.421 285.226 59.9405 285.987C59.7403 285.737 59.3099 285.026 58.6393 283.024C58.0487 281.413 58.6393 279.071 59.1898 276.799C60.0406 273.355 61.0016 269.451 57.318 268.22L57.0678 268.14L56.8275 268.25C55.9867 268.621 55.4162 269.091 55.0058 269.421C54.9557 269.461 54.8957 269.511 54.8356 269.561C54.7555 269.331 54.6354 268.94 54.4752 268.27C54.7555 267.649 55.1259 267.038 55.4862 266.448C56.3571 265.016 57.1778 263.655 56.6573 262.354C56.267 261.383 55.2159 260.692 53.3441 260.182L53.234 260.153H53.1239C52.4333 260.213 51.7726 260.232 51.162 260.232C50.4914 260.232 49.9909 260.202 49.6306 260.182C49.4003 260.172 49.2202 260.162 49.08 260.162C48.8999 260.162 48.4895 260.162 48.1992 260.472C47.8989 260.782 47.9189 261.174 47.9389 261.654C47.9489 261.934 47.969 262.294 47.9489 262.785C47.6386 262.645 47.3483 262.494 47.0581 262.344C46.0871 261.854 45.2463 261.423 44.3254 261.423C43.0942 261.423 42.0432 262.184 40.9221 263.895L39.9612 265.357L41.6528 264.936C42.2133 264.796 42.7339 264.726 43.2043 264.726C44.0852 264.726 44.7959 264.976 45.2663 265.447C45.6267 265.817 45.8368 266.298 45.8368 266.789C45.8368 267.119 45.7168 267.479 45.5066 267.479C45.4165 267.479 45.0761 267.429 44.4956 266.818L43.6348 265.908L43.3344 267.119C42.5236 270.382 45.6367 271.533 48.1391 272.454C49.8708 273.094 51.6625 273.755 51.8627 274.896C52.123 276.328 50.2512 278.77 46.3073 282.153L45.4165 282.925L46.5275 283.324C47.1181 283.535 48.4594 284.015 49.1601 284.365C48.6296 284.586 47.7187 284.876 46.8279 285.156L45.8569 285.466L45.7268 285.737C45.1562 286.958 44.8459 287.208 44.7659 287.248C44.5557 287.148 44.1252 286.548 43.8049 286.098C43.4245 285.557 42.9941 284.956 42.4436 284.375L42.0332 283.935L41.5427 284.285C38.73 286.307 40.772 290.271 42.2634 293.164C42.2935 293.224 42.3235 293.284 42.3535 293.344C41.4526 292.783 40.6318 292.513 39.8811 292.513C38.5699 292.513 37.729 293.335 37.1184 293.935C36.7881 294.256 36.4478 294.585 36.2376 294.585C36.1175 294.585 35.9473 294.486 35.7371 294.316C34.8863 292.464 35.5769 292.013 36.708 291.262C37.9092 290.471 39.5408 289.39 37.9993 286.377C39.741 283.655 39.9011 273.305 38.4898 269.311C37.9693 267.839 37.2285 267.089 36.2776 267.089C35.7471 267.089 35.2066 267.339 34.666 267.849L34.556 267.949L34.4959 268.09C33.8052 269.782 33.9453 272.194 34.0955 274.526C34.2656 277.258 34.4358 280.092 33.2447 281.343C32.7642 281.853 32.0635 282.103 31.0926 282.103C30.7422 282.103 30.3519 282.073 29.9315 282.003H29.8614H29.7913C29.7112 282.003 29.6411 282.003 29.5711 282.003C29.2708 282.003 28.8704 281.963 28.7103 281.753C28.3899 281.342 28.6903 280.142 28.9105 279.261C29.0806 278.58 29.2408 277.94 29.2508 277.379L29.2708 276.438L28.37 276.708C26.7384 277.188 21.7636 278.67 22.4242 282.574L22.4843 282.925L22.8046 283.074C23.8256 283.575 24.4361 284.115 24.6263 284.696C24.8765 285.447 24.4061 286.337 23.9456 287.198C23.4151 288.199 22.8746 289.24 23.4252 290.211C23.9757 291.172 25.4771 291.703 28.4 291.943C28.0997 292.484 27.6292 292.723 26.9085 292.723C25.9676 292.723 24.8065 292.313 23.7855 291.953L21.2431 291.062L22.7645 292.934C24.5062 295.076 24.5462 295.907 24.5262 296.077C24.5062 296.077 24.4862 296.077 24.4461 296.077C23.3451 296.077 20.6925 294.055 20.6124 291.292L20.5623 289.58L19.4213 290.862C15.3173 295.446 14.0661 306.236 15.0771 308.488C15.3573 309.099 15.7878 309.2 16.028 309.2C16.6286 309.2 17.6295 309.199 19.4713 301.061C23.7855 303.223 25.5272 305.356 25.307 306.467C25.0768 307.648 22.6444 308.469 18.8007 308.669L18.0599 308.709L18.15 309.44C18.5805 312.823 19.9017 314.545 22.0939 314.545C24.4061 314.545 27.1988 312.523 29.6612 310.731C31.1626 309.64 32.8743 308.399 33.585 308.399C33.625 308.399 33.645 308.399 33.645 308.399C33.6651 308.419 34.2356 308.979 32.8543 313.724L32.7642 314.045L32.9644 314.314C36.678 319.399 36.3677 320.07 35.8772 321.091C35.4668 321.952 34.9163 323.124 35.5269 325.926C35.5068 327.288 35.607 327.828 35.9273 328.148C36.0874 328.308 36.2976 328.398 36.5278 328.398C37.0684 328.398 37.4087 327.947 37.9793 327.207C38.6199 326.366 39.5007 325.225 40.5417 324.935C40.6418 324.935 40.7419 324.935 40.832 324.935C40.3615 325.315 39.8711 325.816 39.3706 326.467L39.2705 326.597L39.2405 326.756C38.8201 328.958 39.2605 343.173 41.5627 345.946C41.9932 346.466 42.4436 346.565 42.7439 346.565C43.0242 346.565 43.2844 346.476 43.5146 346.326C43.2844 346.866 42.9841 347.467 42.7739 347.877C41.9431 349.529 41.3425 350.72 41.843 351.52C41.9631 351.721 42.2634 352.051 42.894 352.051C43.2543 352.051 43.8149 351.961 44.956 351.43C44.0452 353.172 43.8549 354.283 44.2753 355.064C44.7658 355.955 45.8869 356.075 46.8178 356.075C47.3283 356.075 47.8989 356.035 48.4995 355.995C49.1701 355.955 49.8608 355.905 50.5514 355.905C51.7626 355.905 52.6735 356.045 53.4242 356.355L54.5653 356.816L54.3651 355.604C54.1249 354.163 53.3441 352.752 52.6034 351.371C51.9127 350.1 51.202 348.798 50.9718 347.537C50.8217 346.936 50.8017 346.386 50.7816 345.865C50.7216 344.484 50.5414 343.423 48.9399 342.863C49.1601 342.772 49.3703 342.742 49.5705 342.742C49.6606 342.742 49.7306 342.742 49.8007 342.742C49.8708 342.742 49.9308 342.742 49.9909 342.742C50.4914 342.742 50.6916 342.462 50.7717 342.292C51.0019 341.791 50.7917 341.551 49.6306 340.259C49.2001 339.779 48.6196 339.119 47.8588 338.238C48.6696 336.546 47.5085 334.184 46.5476 332.252C46.2673 331.681 45.997 331.141 45.8368 330.721C46.9079 328.839 47.0681 326.787 46.2573 325.315C45.6968 324.314 44.7558 323.743 43.6648 323.743C43.4145 323.743 43.1243 323.774 42.814 323.854C42.9441 323.193 42.4035 322.543 41.833 321.852C41.3725 321.301 40.7619 320.57 40.7219 320.04C41.3225 319.589 41.7028 319.019 41.843 318.358C42.2033 316.637 40.872 314.685 39.5908 312.803C39.0703 312.032 38.5298 311.242 38.1795 310.551H38.1995C39.1905 310.551 40.0112 310.22 40.6518 309.57C41.7129 308.489 41.9531 306.827 41.9531 305.546C43.2244 303.905 43.875 303.774 44.0551 303.774C44.1052 303.774 44.2253 303.775 44.3855 303.955C45.6167 305.336 45.7768 311.782 44.7959 320.771L44.7558 321.101L44.986 321.331C46.0471 322.382 47.4284 322.762 48.7697 323.123C50.111 323.483 51.3722 323.834 52.163 324.825L52.5734 325.346L53.1039 324.945C55.2159 323.363 55.5463 318.489 55.8966 313.334C56.1769 309.12 56.5272 303.884 58.1288 303.884C58.5192 303.884 59.37 304.175 60.9415 305.877C59.8404 306.087 58.9396 306.707 58.3991 307.628C57.7685 308.719 57.7584 310.041 58.369 311.092C58.7394 311.742 59.6803 312.823 61.7523 312.823C61.7723 312.823 61.7823 312.823 61.8023 312.823C62.6832 313.904 62.3029 314.274 61.2819 315.245C60.7113 315.796 60.0606 316.417 59.6202 317.308L59.3499 317.868L59.8805 318.198C63.6141 320.51 63.9344 321.942 63.7843 322.593C63.494 323.904 60.8314 325.005 56.8475 325.466L55.7865 325.585L56.347 326.496C56.9977 327.557 57.2179 329.249 57.4281 330.88C57.8085 333.763 58.2389 337.037 61.3719 337.037C61.9024 337.037 62.483 336.937 63.1336 336.737C63.0436 337.387 62.4129 338.118 61.492 339.109C60.3009 340.39 58.9596 341.841 59.4401 343.603C60.0907 347.126 61.412 351.32 64.0145 351.32C65.5059 351.32 66.9574 349.909 68.4688 347.006C70.9813 346.336 72.783 345.936 73.844 345.825C72.5828 346.806 69.6399 348.528 67.3677 349.849C65.3858 351.01 63.3238 352.201 61.7523 353.232L61.2018 353.593L61.5421 354.153C62.2227 355.294 62.6832 356.115 62.9234 356.605C62.3529 356.726 61.7823 357.146 61.6922 358.347L61.6722 358.577L61.8023 358.768C64.0145 362.151 66.3267 362.441 68.3287 362.441C68.4788 362.441 69.1895 362.441 69.1895 362.441C70.5508 362.441 71.4317 362.541 72.0323 364.393C71.6619 365.394 69.3296 365.874 67.7581 366.205C66.8973 366.385 66.1566 366.536 65.6561 366.756L65.596 366.785L65.5459 366.825C64.6651 367.426 63.6742 368.237 63.8343 369.238C64.0345 370.439 65.6561 370.9 67.7181 371.47C69.3897 371.941 71.4417 372.511 71.9722 373.432C67.568 379.028 66.0364 381.92 66.3167 384.032C66.5469 385.694 67.8182 386.634 69.4397 387.815C70.6709 388.716 72.1324 389.778 73.5237 391.469C72.4727 391.209 71.3416 391.068 70.2005 391.068C66.8973 391.068 64.0445 392.14 62.3629 394.022C61.0916 395.433 60.5411 397.285 60.7714 399.357L60.7913 399.507L60.8714 399.637C61.1317 400.058 61.5421 400.618 62.1627 400.618C63.2437 400.618 63.514 399.176 63.8043 397.655C63.8643 397.325 63.9444 396.905 64.0145 396.665C64.2848 396.595 64.5851 396.554 64.9054 396.554C66.1065 396.554 67.3077 397.035 67.8983 397.756C68.2386 398.166 68.3487 398.626 68.2386 399.147L67.9784 400.448L69.1895 399.907C69.8702 399.607 70.4808 399.457 71.0413 399.457C72.803 399.457 73.9641 400.989 75.3154 402.76C76.3865 404.172 77.5777 405.723 79.2493 406.654C78.939 406.974 78.7287 407.335 78.6486 407.725C78.3383 409.167 79.5996 410.648 80.8308 412.079C81.5615 412.94 82.3222 413.831 82.5725 414.522C83.143 418.255 84.7345 420.147 87.317 420.147C89.9896 420.147 93.2429 418.085 96.3859 416.083C98.4579 414.762 100.41 413.531 101.921 413.06C101.941 413.06 101.971 413.06 101.991 413.06C102.622 413.06 103.533 412.689 104.984 412.089C106.235 411.568 107.807 410.918 108.598 410.918C108.678 410.918 108.728 410.919 108.758 410.929C108.758 411.039 108.738 411.339 108.427 412.01C105.324 417.345 90.1699 419.907 79.1091 421.779C69.1195 423.471 64.6952 424.301 64.6351 426.293C64.5951 427.644 66.3768 428.926 75.2854 431.068C74.8951 433.32 75.2053 435.091 76.2163 436.362C77.4275 437.884 79.5696 438.615 82.7427 438.615C86.6164 438.615 91.3209 437.524 95.465 436.563C98.3978 435.882 100.93 435.292 102.382 435.292C102.882 435.292 103.092 435.361 103.152 435.401C103.152 435.542 103.012 436.112 101.641 437.614L101.471 437.794V438.045C101.371 439.896 100.2 440.687 97.527 440.687C96.436 440.687 95.2747 440.557 94.1637 440.427C93.2027 440.317 92.3019 440.217 91.5612 440.217C91.4711 440.217 91.381 440.217 91.2909 440.217H91.1607L91.0406 440.276C88.5582 441.377 87.3671 442.488 87.307 443.78C87.2169 445.762 89.7994 447.213 92.8023 448.895C95.6251 450.477 98.8282 452.279 98.3277 454.05L98.2977 454.15V454.25C98.2977 455.081 98.1476 455.271 98.1276 455.291C98.1076 455.311 98.0575 455.311 98.0375 455.311C97.497 455.311 96.3558 454.641 95.1646 453.93C92.9124 452.599 89.8295 450.777 86.5363 450.777C84.8346 450.777 83.2231 451.267 81.7517 452.228C78.3084 453.83 77.948 455.581 77.5376 457.623C77.1873 459.365 76.7869 461.337 74.2044 463.959C68.9393 466.732 56.9977 473.749 57.338 480.105C57.4782 482.728 59.6303 484.89 63.7242 486.512L63.8743 486.571H64.0345C65.9364 486.401 68.0584 485.931 70.3106 485.44C73.1834 484.81 76.1563 484.149 78.7288 484.149C81.9419 484.149 85.6255 485.02 85.9858 491.576C85.0749 491.116 84.3241 490.105 83.5434 489.044C82.4423 487.543 81.3013 485.991 79.4895 485.991C78.8689 485.991 78.2183 486.181 77.5476 486.561L77.3474 486.672L77.2573 486.882C75.7158 490.365 72.1524 490.835 68.3887 491.326C65.8262 491.656 63.1837 492.007 61.0116 493.318L60.8314 493.428L60.7413 493.608C60.0807 495 59.0296 496.702 57.9286 498.513C53.9347 505.03 48.9599 513.137 53.7946 518.442L54.1249 518.803L54.1649 518.783C54.3951 519.274 54.8556 519.744 55.3161 520.204C55.5263 520.415 55.7465 520.634 55.9367 520.854C55.8065 521.095 55.6764 521.225 55.5763 521.225C55.226 521.225 54.5453 520.645 53.9948 520.174C53.0639 519.383 52.0129 518.493 50.8217 518.493C48.7297 518.493 47.2682 521.125 46.0871 527.021L46.027 527.331L46.2272 527.582C47.4384 529.083 46.6676 530.334 45.3364 532.075C44.5256 533.136 43.7649 534.137 44.1052 535.198C44.1753 535.409 44.2854 535.599 44.4355 535.779C41.0723 536.239 38.1895 537.581 38.1995 538.892C38.1995 539.303 38.4297 540.003 39.9712 540.003C40.9321 540.003 42.3735 539.753 44.1753 539.273C44.0151 541.134 44.8459 541.925 45.4265 542.476C46.0271 543.047 46.3874 543.387 44.4856 545.899L44.1652 546.32L44.4956 546.73C45.3864 547.871 46.2172 549.353 47.1081 550.934C49.1501 554.588 51.4724 558.712 55.3361 559.542C55.9567 560.393 55.6964 564.007 54.3952 567.63C53.3942 570.423 52.5334 571.023 52.3832 571.023C52.3832 571.023 52.2631 570.973 52.0829 570.653L52.0329 570.563L51.9628 570.492C50.9919 569.501 51.172 568.461 51.3422 567.45C51.4723 566.68 51.6124 565.878 51.0919 565.268C50.6815 564.787 50.0109 564.567 48.9198 564.567C48.6596 564.567 48.3593 564.577 48.039 564.607C46.0971 564.206 45.1962 563.026 44.8359 560.444L44.7558 559.863H44.1652C43.895 559.853 43.5546 559.803 43.4045 559.622C43.0742 559.202 43.3745 557.9 43.6447 556.759C44.1352 554.667 44.7358 552.065 42.844 550.574L41.873 549.813L41.7329 551.034C41.5027 553.096 41.0222 555.548 40.0212 555.548C39.5207 555.548 38.8001 555.148 38.0493 554.717C36.9883 554.117 35.7772 553.437 34.4459 553.437C32.9744 553.437 31.7232 554.247 30.5921 555.909L30.522 556.009L30.492 556.129C30.0916 557.81 31.2928 559.382 32.3438 560.763C33.8853 562.785 34.2056 563.536 33.2547 564.307L32.6942 564.757L33.1746 565.298C34.8462 567.15 35.9172 567.93 36.7681 567.93C38.2295 567.93 38.2595 566.109 38.2795 564.658C38.2895 564.047 38.3096 562.926 38.4998 562.656C38.6699 562.676 39.3706 562.905 41.2625 564.977C46.5176 571.273 45.6767 572.154 44.4055 573.486C43.4746 574.466 42.2334 575.768 42.4035 578.741C41.1123 578.45 40.0913 578.31 39.3106 578.31C38.8902 578.31 37.6189 578.311 37.1384 579.262C36.5578 580.423 37.6189 582.014 39.0903 584.005C38.5398 584.506 38.5498 585.017 38.6199 585.327C38.9502 586.688 41.5427 587.309 43.2744 587.309C45.3664 587.309 46.8579 586.558 47.3684 585.257L47.4384 585.087L47.4084 584.907C47.1982 583.535 47.008 582.605 46.8679 581.934C46.7578 581.404 46.6477 580.903 46.6777 580.792C46.7277 580.722 47.008 580.543 47.2583 580.383C47.8188 580.022 48.6596 579.491 49.8908 578.45C50.3913 578.38 50.8717 578.351 51.3022 578.351C52.6835 578.351 53.1039 578.701 53.1239 578.771C53.1239 578.771 53.0839 579.471 50.7316 580.702C46.6276 583.035 48.5495 586.719 49.9509 589.401C51.082 591.583 51.5324 592.665 50.7516 593.185L50.3313 593.465L50.4713 593.946C51.4223 597.139 49.4003 599.911 47.6186 602.344C46.3173 604.125 45.1862 605.677 45.5366 607.128C45.7167 607.899 46.2873 608.529 47.2583 609.02L47.6186 609.211L47.959 608.98C48.4594 608.64 49.2402 608.55 49.9909 608.46C50.9718 608.34 51.9928 608.22 52.5634 607.489C52.8036 607.179 52.9438 606.798 52.9538 606.347C53.1139 606.297 53.2941 606.267 53.5143 606.267C53.9748 606.267 54.5153 606.378 55.0859 606.498C55.7065 606.628 56.3571 606.758 56.9877 606.758C57.7084 606.758 58.2889 606.588 58.7494 606.238C60.0907 605.317 60.7313 605.037 61.0316 604.947C61.0116 605.247 60.8915 605.777 60.8114 606.147C60.5511 607.298 60.2508 608.61 60.9115 609.421C61.2418 609.831 61.7323 610.041 62.3829 610.041C62.8734 610.041 63.4539 609.921 64.1646 609.681L64.2647 609.641L64.3548 609.57C66.4969 607.969 67.1976 603.515 67.8882 599.201C68.4188 595.828 69.0894 591.633 70.3706 591.633C70.701 591.633 71.4617 591.894 72.8531 593.606C72.6329 594.456 72.3926 595.257 72.1624 596.038C71.3016 598.95 70.691 601.042 71.6919 602.393C72.2525 603.144 73.2535 603.515 74.7249 603.515C75.7359 603.515 76.9971 603.354 78.5786 603.014L78.6387 602.995C78.6387 602.995 78.6787 602.985 78.7488 602.985C79.4795 602.985 80.7807 603.665 81.5915 604.236H81.5615L81.3212 604.565C80.3703 605.907 78.949 606.508 76.7068 606.508C75.6558 606.508 74.5447 606.378 73.4737 606.258C72.4026 606.137 71.4016 606.017 70.4507 606.017C69.3196 606.017 67.6881 606.167 66.6471 607.429C65.6561 608.63 65.3758 610.582 65.8062 613.495C62.5631 612.124 60.9215 611.212 59.9005 610.642C58.7394 610.001 58.2089 609.701 57.0678 609.701C56.4772 609.701 55.7365 609.781 54.5153 609.901C53.174 610.041 51.3322 610.231 48.5796 610.431H48.3993L48.2492 610.542C45.2863 612.484 44.2754 613.605 44.5056 614.686C44.7959 616.017 46.8279 616.337 50.2011 616.858C56.0168 617.758 64.7652 619.11 69.3897 626.147C69.0794 626.717 69.0594 627.378 69.3596 628.059C70.0703 629.711 72.6228 631.422 74.9051 632.393C72.9932 632.063 70.781 630.741 69.1094 629.73C67.4978 628.77 66.557 628.219 65.8363 628.219C65.4259 628.219 65.0955 628.389 64.8954 628.709C64.6051 629.169 64.575 629.86 65.2357 631.592C64.6551 631.211 64.0645 630.842 63.484 630.481C59.5201 627.999 56.0968 625.856 56.3571 620.821L56.3771 620.391L56.0067 620.181C54.4052 619.3 52.9037 618.85 51.5424 618.85C48.8998 618.85 46.8579 620.551 46.0671 623.394C45.2563 626.297 45.947 630.311 48.8198 632.032L49.5705 632.483L49.8308 631.652C50.2111 630.431 50.6015 629.9 50.7617 629.74C50.8818 630.041 50.9919 630.901 50.5514 632.302L50.4113 632.764L50.8017 633.053C55.236 636.336 56.6373 637.758 57.0678 638.338C55.6664 638.268 52.4133 637.177 49.2502 636.126C48.2592 635.796 47.2482 635.466 46.2773 635.146C44.4255 631.442 44.1453 628.359 43.885 625.376C43.5547 621.632 43.2443 618.109 39.9612 613.895L39.9111 613.824L39.841 613.775C39.2805 613.334 38.6899 613.114 38.0893 613.114C37.2685 613.114 36.0574 613.535 34.8962 615.557C32.564 619.59 31.7532 627.588 34.2056 631.832C35.2566 633.654 36.8381 634.675 38.79 634.805C38.8501 635.055 38.8401 635.255 38.77 635.376C38.5898 635.676 37.8091 635.776 37.2385 635.857C36.3877 635.977 35.4268 636.107 35.1665 636.938C34.9063 637.778 35.4268 638.87 38.8401 641.942L38.9202 642.012L39.0202 642.052C39.5508 642.292 40.0312 642.413 40.4817 642.413C41.833 642.413 42.4636 641.372 42.844 640.751C42.874 640.701 42.904 640.651 42.9441 640.591C43.2344 641.481 43.7849 642.113 44.4055 642.613L42.6738 644.825C42.0232 645.656 41.4025 646.056 40.7719 646.056C39.5908 646.056 38.2695 644.675 36.9783 643.333C35.4468 641.742 33.8652 640.09 32.0134 640.09C30.9424 640.09 29.9114 640.661 28.9605 641.782L28.37 642.472L29.2007 642.843C32.2136 644.204 32.9244 646.407 32.604 647.868C32.3838 648.869 31.7132 649.509 30.8823 649.509C30.0515 649.509 29.0907 648.889 28.1798 647.767L27.4691 646.887L27.0186 647.918C25.4171 651.592 22.7745 653.513 19.9718 655.555C16.4084 658.148 12.7247 660.83 11.3634 667.237L11.2834 667.627L11.5837 667.888C12.1642 668.398 12.6747 669.098 13.0751 669.659C13.6357 670.43 13.966 670.9 14.5065 670.9C14.7367 670.9 14.9469 670.81 15.0971 670.64C15.3573 670.37 15.4774 669.969 15.4374 668.568C15.7076 668.728 15.9579 668.878 16.2082 669.019C17.1491 669.559 17.9699 670.019 18.0399 670.49C18.09 670.82 17.8598 671.501 16.5185 672.902L16.1681 673.263L16.4084 673.703C17.2292 675.174 18.6005 675.915 20.4823 675.915C24.306 675.915 29.5311 672.872 33.7251 670.43C35.4268 669.439 36.8982 668.578 37.8692 668.178L38.2896 668.008V667.557C38.3196 666.136 38.4998 665.725 38.5699 665.625C38.77 665.655 39.2005 665.895 39.5108 666.085C40.2114 666.485 41.0722 666.986 42.0332 666.986C44.916 666.986 46.6777 662.602 47.7688 652.753L47.7887 652.533L47.6787 652.342C47.5685 652.152 47.3384 651.782 47.018 651.282C44.926 648.008 43.865 646.046 43.8549 645.465L44.966 643.024C45.1962 643.184 45.4264 643.333 45.6467 643.473C47.008 644.354 48.089 645.045 47.7787 647.137L47.5285 648.829L48.8798 647.778C49.5805 647.228 50.5114 646.987 51.8928 646.987C52.4433 646.987 53.0138 647.027 53.5644 647.057C54.1149 647.097 54.6755 647.127 55.206 647.127C56.9176 647.127 58.9496 646.767 59.5602 644.025C59.7704 643.764 59.9205 643.764 60.0006 643.764C60.2909 643.764 60.7213 643.984 61.1317 644.184C61.6822 644.464 62.3028 644.775 62.9635 644.775C63.5841 644.775 64.1246 644.505 64.565 643.985L64.6251 643.904L64.6651 643.813C64.9854 643.093 65.546 642.773 65.9664 642.773C66.1065 642.773 66.2967 642.803 66.4368 642.973C66.607 643.183 66.6671 643.534 66.597 643.985C66.2066 644.825 65.4659 645.306 64.8653 645.706C64.2647 646.106 63.7042 646.476 63.7542 647.147C63.8143 647.837 64.525 648.288 65.8162 648.849C66.2567 649.279 66.4368 649.54 66.5169 649.67C66.1566 649.8 65.2757 649.879 64.605 649.939C62.4129 650.14 59.41 650.41 57.9386 652.572L57.8785 652.663L57.8485 652.772C57.308 654.734 57.2779 655.805 57.7384 656.446C58.1288 656.996 58.7394 657.036 59.1398 657.067C59.2599 657.067 59.4501 657.087 59.4701 657.087C59.5302 657.187 59.7504 657.858 58.379 661.601L58.1588 662.212L58.7494 662.472C60.9815 663.443 63.5641 664.674 63.8443 665.655C63.9945 666.195 63.4439 666.986 62.6832 668.077C61.8123 669.328 60.6212 671.03 59.7403 673.483C59.3099 674.103 58.8895 674.884 59.2398 675.555C59.6302 676.306 60.6513 676.316 61.402 676.316C61.402 676.316 62.2027 676.316 62.3729 676.316C63.514 676.316 64.6351 676.405 65.0655 677.076C65.4158 677.627 65.556 678.928 64.1646 681.941L64.1346 682.021L64.1146 682.101C63.9244 683.092 64.0345 683.813 64.4449 684.323C64.7952 684.754 65.3258 684.964 66.0265 684.964C67.1976 684.964 68.7291 684.353 70.0904 683.802C70.8812 683.492 71.762 683.132 72.1624 683.102C73.3636 683.472 74.0042 683.613 74.5046 683.613C75.946 683.613 76.0562 682.421 76.1462 681.26C76.1763 680.87 76.2163 680.429 76.2864 679.959C78.6087 668.788 80.7307 667.847 82.4624 667.537C81.8618 667.847 81.3313 668.268 80.8809 668.778C80.0701 669.689 79.1692 671.311 79.4394 673.863C78.5185 678.478 81.7917 679.428 83.9638 680.049C84.9147 680.329 85.8957 680.61 86.0759 681.07C86.196 681.371 86.0359 681.931 85.6154 682.631L85.145 683.432L86.0558 683.642C86.6364 683.772 87.277 684.023 87.9477 684.293C89.0087 684.714 90.0998 685.144 91.1108 685.144C91.9115 685.144 92.5721 684.874 93.0726 684.333C94.3238 685.084 95.1746 685.424 95.8053 685.424C96.4359 685.424 96.7563 685.084 96.8864 684.874C97.2968 684.233 97.1366 683.212 96.3258 681.441L96.2457 681.271L96.0956 681.16C93.7733 679.529 93.0226 676.876 92.2218 674.073C91.8715 672.842 91.5112 671.571 91.0007 670.39L90.9806 670.35L90.9606 670.31C89.6593 668.148 87.5073 666.856 85.215 666.856C85.0148 666.856 84.8047 666.867 84.6045 666.887C85.5153 666.326 86.276 665.225 86.9267 662.843C87.1469 662.803 87.3771 662.782 87.5974 662.782C88.3281 662.782 88.9487 663.003 89.349 663.393L89.6394 663.683L90.0298 663.563C91.0908 663.233 91.8214 662.883 91.9315 662.222C92.0516 661.551 91.4911 661.131 91.0007 660.761C90.6303 660.48 90.1598 660.129 90.1998 659.829C90.2399 659.459 90.8604 658.368 95.6651 656.256L96.496 655.895L95.9254 655.195C95.7252 654.944 95.515 654.705 95.3148 654.464C94.1537 653.073 92.8324 651.491 93.1227 650.73C93.2328 650.43 93.7733 649.87 96.0655 649.519L97.0366 649.37L96.556 648.508C94.6441 645.055 95.6551 642.623 96.1756 641.732C96.8162 640.651 97.8272 639.93 98.6981 639.93C99.1285 639.93 99.4889 640.11 99.7592 640.461C100.5 641.401 100.55 643.433 99.8993 646.016L99.8793 646.086V646.157C99.4689 654.074 99.8993 658.008 103.042 660.891C100.17 661.181 95.7352 665.145 94.2238 667.767C93.6032 668.848 93.463 669.709 93.8234 670.339C93.9935 670.629 94.3239 670.96 94.9845 671.07C95.9655 674.243 96.436 675.034 97.2768 675.034C97.9674 675.034 98.3377 674.384 98.8082 673.563C99.5589 672.262 100.58 670.489 102.842 670.169L103.232 670.119L103.383 669.749C103.533 669.368 103.963 669.039 104.354 668.978C105.435 669.459 106.275 669.689 106.936 669.689C108.077 669.689 108.377 668.988 108.458 668.688C108.778 667.437 107.316 665.655 105.635 664.594C105.715 663.854 105.695 663.222 105.575 662.702C107.326 663.713 109.579 664.664 112.421 665.735L113.683 666.205L113.322 664.904C112.381 661.521 112.572 660.58 112.772 660.31C112.802 660.27 112.872 660.18 113.212 660.18C113.542 660.18 113.973 660.26 114.423 660.35C115.004 660.46 115.665 660.59 116.335 660.59C117.176 660.59 117.867 660.39 118.467 659.989L118.828 659.75L118.758 659.319C118.027 654.554 120.349 651.401 122.812 648.058C125.184 644.835 127.636 641.502 127.376 636.607C128.707 634.856 131.07 633.564 133.552 632.193C136.825 630.391 140.198 628.539 141.93 625.356C143.692 624.916 145.153 624.585 146.334 624.315C152.31 622.964 152.47 622.833 155.103 617.068C155.623 615.927 156.244 614.565 157.045 612.904C159.277 616.988 161.099 618.819 162.9 618.819C164.051 618.819 164.912 618.079 165.673 617.438C166.214 616.978 166.714 616.548 167.144 616.548C167.385 616.548 167.655 616.687 167.965 616.988C169.497 619.42 169.697 623.624 168.386 626.027C167.665 627.348 166.584 628.019 165.152 628.019C164.922 628.019 164.692 627.999 164.452 627.969C163.821 626.578 163.421 625.185 163.091 624.044C162.5 621.992 162.069 620.512 160.748 620.512C159.587 620.512 158.216 621.883 155.513 625.736L155.253 626.097L155.483 626.477C159.127 632.533 157.245 636.827 156.584 637.998C155.653 639.64 154.412 640.38 153.601 640.38C153.181 640.38 152.861 640.2 152.6 639.84C152.16 639.229 151.349 637.197 153.281 631.592L154.232 628.829L152.09 630.951C147.706 635.276 139.558 643.333 141.339 647.727C142.08 649.549 144.232 650.44 147.936 650.461H148.416L148.587 650.02C149.537 647.517 150.668 646.256 151.97 646.256C154.943 646.256 158.906 652.262 161.809 656.656C163.081 658.588 164.182 660.25 165.122 661.351L165.313 661.571L165.603 661.591C166.214 661.631 166.704 661.641 167.104 661.641C168.226 661.641 168.926 661.531 169.216 660.961C169.517 660.38 169.116 659.839 168.726 659.319C168.276 658.708 167.765 658.018 167.945 657.217C168.135 656.366 169.096 655.425 170.748 654.484C171.439 654.934 172.029 655.155 172.58 655.155C173.781 655.155 174.421 654.164 175.052 653.193C175.262 652.872 175.473 652.542 175.723 652.222C179.627 649.659 181.238 647.848 180.938 646.327C180.577 644.535 177.825 644.014 174.912 643.463C172.92 643.083 170.187 642.573 170.007 641.702C169.937 641.352 170.177 640.261 173.941 637.698C174.211 637.628 174.492 637.597 174.772 637.597C176.303 637.597 177.825 638.519 179.426 639.49C181.148 640.531 182.93 641.601 184.892 641.601C186.233 641.601 187.484 641.101 188.695 640.08L188.725 640.05C190.407 638.428 190.367 636.857 190.037 635.816C189.476 634.045 187.724 632.593 185.913 631.683C186.453 631.462 186.773 631.152 186.934 630.731C187.464 629.3 185.562 627.678 182.7 625.226C179.236 622.253 174.942 618.58 176.093 615.747C176.554 615.667 176.874 615.467 177.044 615.136C177.404 614.476 176.964 613.765 176.604 613.184C176.514 613.034 176.373 612.804 176.343 612.724L176.293 612.544L176.153 612.414C175.733 612.033 175.242 611.843 174.672 611.843C174.101 611.843 173.591 612.023 173.12 612.193C172.74 612.323 172.38 612.454 172.099 612.454C171.969 612.454 171.829 612.433 171.679 612.273C172.059 610.011 174.972 609.09 177.104 608.42C178.716 607.909 179.777 607.569 179.787 606.638C179.797 605.747 178.946 605.046 173.911 603.314C173.721 603.144 173.631 603.025 173.571 602.955C174.181 602.614 176.534 602.494 178.285 602.404C182.92 602.164 188.165 601.893 188.846 598.81C189.316 596.327 190.857 594.006 191.528 593.495C191.578 593.855 191.588 594.787 191.038 596.979L190.968 597.268L191.128 597.519C198.265 608.689 197.324 615.747 196.633 620.902C195.852 626.757 195.332 630.631 206.533 634.955L207.614 635.376L207.464 634.235C206.392 626.197 206.613 621.643 208.144 619.881C208.905 619.02 209.956 618.84 211.417 618.84C211.768 618.84 212.128 618.85 212.498 618.86C212.889 618.87 213.289 618.88 213.7 618.88C218.494 618.88 223.689 617.318 224.56 598.72L224.63 597.109L223.419 598.17C222.658 598.84 221.747 599.13 220.456 599.13C219.785 599.13 219.095 599.05 218.364 598.97C217.623 598.89 216.853 598.8 216.102 598.8C215.351 598.8 214.691 598.88 214.1 599.06L213.86 599.13L213.72 599.331C212.038 601.813 210.326 603.075 208.625 603.075C203.76 603.075 199.566 592.585 199.566 587.43C199.566 586.429 199.726 585.878 199.856 585.608C200.046 585.197 200.247 585.197 200.347 585.197C200.767 585.197 202.419 585.638 206.272 591.323L206.593 591.793L207.113 591.573C212.819 589.101 218.795 584.147 217.153 578.211C217.213 578.301 217.263 578.41 217.323 578.5C218.124 579.912 219.805 582.855 225.101 582.855C225.911 582.855 226.782 582.785 227.703 582.655L228.394 582.555L228.274 581.864C228.204 581.433 228.104 581.013 228.003 580.582C230.576 582.714 233.088 583.956 235.371 583.956C239.314 583.956 242.007 580.443 243.368 573.516C244.539 574.767 245.27 577.109 245.731 578.611L246.091 579.772L246.872 579.172C248.283 578.091 249.925 577.679 251.366 577.329C252.988 576.929 254.379 576.589 254.869 575.357C255.27 574.346 254.919 572.965 253.698 570.853C255.69 570.563 257.612 568.591 259.064 566.769C258.933 567.109 258.673 567.82 258.673 567.82V567.911C257.402 581.944 258.353 585.107 259.564 586.429C260.275 587.209 261.156 587.299 261.756 587.299C262.076 587.299 262.397 587.269 262.707 587.249C263.007 587.219 263.318 587.199 263.618 587.199C264.719 587.199 265.98 587.49 266.981 590.973L267.071 591.283L267.372 591.413C269.844 592.464 272.036 592.995 273.878 592.995C275.8 592.995 277.311 592.414 278.382 591.273C279.453 590.132 280.024 588.44 280.104 586.258C280.704 586.097 281.275 586.028 281.796 586.028C283.938 586.028 285.149 587.349 286.21 588.521C287.081 589.472 287.902 590.362 289.073 590.362C290.624 590.362 292.246 588.801 294.728 584.847C296.68 588.24 296.63 588.961 296.57 589.101C296.49 589.171 296.099 589.231 295.869 589.261C294.878 589.401 293.047 589.661 292.976 592.504V592.605L293.006 592.704C294.037 596.288 298.472 596.638 302.025 596.928C302.335 596.948 302.636 596.979 302.936 596.999C300.304 598.66 300.043 599.481 300.203 600.112C300.304 600.512 300.674 600.993 301.815 600.993C304.207 600.993 310.664 598.73 312.325 594.997C312.866 593.785 313.106 591.903 311.204 589.791L310.594 589.111L310.113 589.892C309.242 591.323 308.722 591.974 308.441 592.284C308.351 591.513 308.441 589.921 308.531 588.59C308.762 584.716 309.042 580.063 307.21 578.171C308.431 577.83 309.633 577.69 310.724 577.55C312.806 577.3 314.597 577.079 315.528 575.617C316.479 574.116 316.259 571.604 314.798 567.22L314.707 566.95L314.447 566.819C314.287 566.739 314.107 566.709 313.887 566.709C311.745 566.709 303.236 571.354 300.143 573.086C300.824 568.832 305.108 567.37 308.612 566.179C310.884 565.408 312.675 564.787 313.046 563.476C313.216 562.875 313.066 562.235 312.575 561.544C312.806 560.944 313.486 559.963 316.009 559.963C319.302 559.963 323.696 561.614 325.508 562.355C326.909 563.346 327.33 564.397 327.7 565.328C328.16 566.499 328.641 567.71 330.893 567.71C331.674 567.71 332.685 567.56 333.976 567.27H334.026L334.076 567.239C334.437 567.099 335.398 566.72 335.337 565.909C335.267 564.978 333.956 564.678 332.435 564.327C332.385 564.317 332.335 564.307 332.294 564.297C332.695 561.724 331.033 558.502 329.292 555.108C327.46 551.555 325.568 547.871 326.539 545.559C326.919 544.648 327.75 543.957 329.061 543.466C329.612 544.537 329.672 546.499 329.732 548.251C329.822 550.914 329.902 553.437 331.774 553.437C332.174 553.437 332.615 553.296 333.105 553.006C334.427 554.187 335.217 555.158 335.748 555.829C336.368 556.61 336.789 557.12 337.449 557.12C338.22 557.12 338.741 556.479 340.112 554.757C340.192 554.667 340.262 554.567 340.352 554.467C340.432 555.428 340.372 556.979 340.342 557.93C340.272 559.922 340.272 560.463 340.472 560.824L340.943 561.655L341.584 560.944C342.044 560.434 342.514 560.183 343.015 560.183C343.986 560.183 345.107 561.074 346.098 561.865C347.129 562.686 348.11 563.466 349.111 563.466C350.302 563.466 350.993 562.445 351.413 561.044C352.604 562.946 354.886 563.266 357.119 563.266C357.799 563.266 358.5 563.236 359.191 563.206C359.871 563.176 360.572 563.145 361.243 563.145C362.364 563.145 363.224 563.226 363.935 563.406L364.516 563.556L364.736 562.996C364.906 562.575 365.036 561.925 365.196 561.174C365.387 560.273 365.777 558.411 366.277 557.67C366.257 558.021 366.217 558.421 366.177 558.811C366.017 560.443 365.847 562.125 366.648 562.996C366.958 563.346 367.399 563.526 367.899 563.526C368.209 563.526 368.54 563.456 368.92 563.326L369.06 563.275L369.16 563.176C369.531 562.825 369.981 561.945 370.822 560.283C371.553 558.852 372.984 556.029 373.765 555.318C373.294 557.841 373.044 560.233 373.044 562.285C373.044 563.997 373.224 565.358 373.564 566.349C374.125 567.93 375.036 568.261 375.697 568.261C376.117 568.261 376.557 568.12 377.018 567.85C377.729 568.631 378.219 568.941 378.68 568.941C378.96 568.941 379.21 568.832 379.39 568.621C379.821 568.131 379.741 567.26 379.54 565.798C379.991 566.169 380.421 566.339 380.862 566.339C382.343 566.339 383.054 564.487 383.874 562.355C384.665 560.293 385.566 557.951 386.977 557.951C387.718 557.951 389.06 558.561 391.282 561.474L391.582 561.865L392.052 561.705C394.004 561.024 395.195 560.153 395.706 559.042C396.327 557.681 395.776 556.279 395.336 555.158C394.985 554.277 394.695 553.517 394.985 553.076C395.296 552.596 396.467 552.005 400.29 551.844C400.35 551.844 400.41 551.844 400.471 551.844C400.741 551.844 401.051 551.875 401.381 551.905C401.742 551.945 402.122 551.974 402.493 551.974C403.854 551.974 404.675 551.395 404.925 550.274C412.042 538.342 414.704 530.344 412.843 526.501C412.763 526.34 412.652 526.21 412.562 526.06C413.663 526.5 414.804 526.831 416.016 527.041L416.386 527.101L416.636 526.82C417.667 525.659 421.311 521.806 424.814 521.215L425.305 521.135L425.375 520.634C425.685 518.402 424.934 517.451 424.374 516.761C423.813 516.06 423.473 515.629 425.755 512.677L425.985 512.376L425.855 512.027C424.043 507.052 425.425 505.931 427.016 504.649C428.588 503.378 430.37 501.936 428.708 497.202L428.678 497.112L428.618 497.032C427.817 495.91 427.026 495.53 426.506 495.28C426.406 495.23 426.266 495.17 426.206 495.12C426.206 494.959 426.306 494.529 426.766 493.458C428.738 494.028 429.268 496.582 429.789 499.054C430.049 500.295 430.29 501.476 430.72 502.417L431.02 503.087L431.661 502.737C438.888 498.853 439.518 486.291 437.847 480.345L437.757 480.036L437.697 480.005C437.587 479.645 437.256 479.314 436.866 479.014C436.776 475.891 439.849 465.191 443.082 453.89C449.989 429.787 454.653 412.43 451.76 408.596C451.34 408.036 450.749 407.735 450.059 407.735L450.149 407.825Z" stroke="white" stroke-miterlimit="10"/>
<path d="M155.833 655.175C154.712 654.494 153.061 654.154 150.908 654.154V655.525C152.77 655.525 154.232 655.815 155.123 656.356C155.813 656.776 156.154 657.327 156.144 658.038C156.144 660.801 151.459 664.724 147.095 664.724V666.096C152.36 666.096 157.515 661.481 157.515 658.048C157.515 656.857 156.934 655.865 155.833 655.195V655.175Z" stroke="white" stroke-miterlimit="10"/>
<path d="M106.215 675.185C102.952 675.185 99.4088 675.715 97.3668 676.516C96.5761 676.636 94.7242 676.966 94.8143 678.197C94.9344 679.749 98.6181 680.53 100.65 680.53C101.661 680.53 102.472 680.37 103.072 680.06C103.483 680.22 103.773 680.8 104.123 681.581C104.514 682.441 104.954 683.412 105.945 683.412C106.466 683.412 106.986 683.122 107.587 682.511C111.49 680.469 113.142 678.838 112.782 677.376C112.341 675.564 108.958 675.185 106.205 675.185H106.215Z" stroke="white" stroke-miterlimit="10"/>
<path d="M31.523 595.577C29.461 596.398 27.9796 596.998 27.9896 598.13C27.9896 599.1 29.1507 599.661 30.2718 600.091L30.572 600.202L30.8523 600.051C31.8833 599.491 34.4458 598.901 36.9582 598.901C39.0503 598.901 40.5317 599.321 40.9121 600.032C41.2124 600.582 40.812 601.403 40.4216 601.984L39.9912 602.644L40.7019 602.985C41.1423 603.195 41.5927 603.304 42.0432 603.304C44.0852 603.304 45.4665 601.132 45.4765 599.09C45.4765 597.088 44.1953 595.788 42.1833 595.778H42.0832C40.2614 595.778 40.0312 595.407 40.0212 595.407C39.9211 595.057 40.7719 594.105 42.5437 592.594C42.8039 592.374 43.0341 592.174 43.2143 592.003L43.6147 591.633L43.3444 591.153C42.5036 589.692 39.0002 587.61 36.8381 587.61C35.9072 587.61 35.4268 588 35.1966 588.32C34.7962 588.861 34.7561 589.652 35.0764 590.653L35.1265 590.813L35.2466 590.933C35.9173 591.594 36.2075 592.174 36.1175 592.654C35.8772 593.836 33.3648 594.847 31.533 595.577H31.523Z" stroke="white" stroke-miterlimit="10"/>
<path d="M6.80909 598.57C6.26857 599.742 6.84914 601.322 8.51075 603.264C9.70191 605.186 10.5727 606.297 11.3235 606.818C10.843 607.148 10.3526 607.609 10.4026 608.259C10.4727 609.23 11.6338 609.701 12.9851 610.252C13.3555 610.402 13.7759 610.572 14.1663 610.762C12.4446 610.512 10.7129 610.451 9.28152 610.401C8.77102 610.381 8.29056 610.362 7.85014 610.342L6.08842 610.252L7.32961 611.513C7.90017 612.093 8.60087 613.304 9.35159 614.596C10.8631 617.198 12.2844 619.65 13.956 619.65C14.0161 619.65 14.0761 619.65 14.1362 619.65L14.4165 619.62L14.5967 619.41C14.8869 619.06 15.1271 619.02 15.3073 619.02C16.0781 619.02 17.1692 619.961 18.04 620.722C18.9909 621.543 19.7317 622.203 20.4924 622.203C20.8427 622.203 21.153 622.063 21.3832 621.803C21.8136 621.322 22.154 620.371 21.7536 616.688C21.6335 614.766 20.7326 613.455 19.4214 612.544C20.2121 612.003 20.2721 610.812 20.3222 609.952C20.3622 609.221 20.4123 608.38 20.7827 608.12L21.2131 607.809L21.0229 607.318C20.3722 605.616 19.4413 604.786 18.2001 604.786C17.3293 604.786 16.4484 605.197 15.5175 605.617C14.957 605.877 14.3765 606.138 13.7859 606.328C14.2163 605.667 14.5766 604.666 15.007 603.445C15.1071 603.165 15.2072 602.874 15.3173 602.563C15.4174 602.563 15.5176 602.574 15.6077 602.574C16.5986 602.574 17.1391 602.083 17.4094 601.683C18.1001 600.672 17.9399 599.06 17.5395 597.769C18.3803 597.278 18.8608 596.688 18.9709 596.017C19.091 595.326 18.8007 594.656 18.1301 594.015L18.04 593.936L17.9299 593.885C17.1892 593.555 16.4985 593.385 15.8679 593.385C15.0471 593.385 14.3164 593.686 13.7658 594.236C13.1052 594.907 12.6948 595.968 12.5847 597.279C11.7639 597.119 10.9832 597.039 10.2725 597.039C7.98025 597.039 7.10942 597.889 6.78911 598.6L6.80909 598.57Z" stroke="white" stroke-miterlimit="10"/>
<path d="M14.7063 567.39C14.6362 567.89 14.9666 568.221 15.3369 568.421C15.1968 568.571 15.0967 568.761 15.0867 569.002C15.0767 569.182 15.1167 569.522 15.4871 569.822L15.5972 569.913L15.7373 569.953C16.3379 570.113 17.1487 570.513 17.9295 570.893C19.1306 571.484 20.2617 572.054 21.1626 572.054C21.8432 572.054 22.2136 571.734 22.4138 571.474C22.9043 570.793 22.8542 569.642 22.2636 567.78C21.8933 566.288 19.6811 566.058 18.3999 566.058C17.5791 566.058 14.8765 566.159 14.7063 567.38V567.39Z" stroke="white" stroke-miterlimit="10"/>
<path d="M30.6022 588.971L30.6622 588.931L30.7122 588.871C31.9635 587.549 31.9134 586.548 31.6532 585.948C31.3128 585.147 30.382 584.656 29.2408 584.656C28.39 584.656 27.5192 584.927 26.7885 585.407L26.6083 585.527L26.5282 585.728C26.1178 586.779 26.1778 587.819 26.6983 588.58C27.1388 589.231 27.8695 589.602 28.6903 589.602C29.3209 589.602 29.9715 589.382 30.5921 588.971H30.6022Z" stroke="white" stroke-miterlimit="10"/>
<path d="M100.39 791.867C99.5891 791.867 98.8783 791.867 98.1676 791.857C98.3177 791.717 98.4579 791.587 98.6081 791.447C96.6762 789.014 94.9746 786.342 92.7524 784.22C89.9097 781.507 89.3992 778.555 90.23 774.621C91.4111 769.005 95.9255 768.064 99.9894 766.082C101.661 765.262 102.942 763.62 104.364 762.319C104.864 761.858 105.174 761.037 105.745 760.827C107.747 760.077 109.899 760.117 111.721 758.325C112.682 757.374 115.224 758.074 117.046 757.924C121.65 757.554 126.275 757.304 130.839 756.653C134.923 756.073 138.857 757.494 142.891 757.123C145.784 756.853 148.677 756.574 151.469 756.303C152.791 756.534 154.132 756.893 155.493 756.993C159.127 757.274 162.78 757.284 166.384 757.734C167.945 757.935 169.407 758.955 170.678 759.496C171.809 761.077 172.88 762.579 173.961 764.071C174.051 764.201 174.181 764.351 174.311 764.391C175.643 764.802 177.264 764.851 178.245 765.682C179.026 766.342 179.026 767.924 179.416 769.246C177.485 771.478 177.645 772.269 180.467 774.401C179.256 776.343 178.165 778.334 176.824 780.136C175.873 781.417 174.592 782.468 173.401 783.549C171.068 785.692 168.436 787.563 166.414 789.955C164.392 792.347 163.351 792.869 160.348 791.798C159.317 791.427 157.665 791.337 156.925 791.918C153.501 794.591 149.618 793.759 146.084 793.158C143.241 792.678 141.069 793.178 138.867 794.58C137.766 795.28 136.755 796.241 135.674 794.58C135.564 794.4 135.274 794.259 135.053 794.249C132.341 794.019 129.638 793.7 126.916 793.63C124.643 793.569 122.071 794.69 120.81 791.637C120.78 791.567 120.71 791.487 120.639 791.477C118.217 790.866 115.775 789.785 113.362 789.825C111.36 789.855 109.639 789.835 107.887 788.824C104.944 787.112 101.621 788.444 100.4 791.888L100.39 791.867Z" stroke="white" stroke-miterlimit="10"/>
<path d="M538.755 203.667C546.232 201.285 552.498 199.283 559.995 196.891C559.785 202.476 560.326 207.141 559.164 211.335C558.564 213.517 555.04 216.189 552.728 216.299C549.505 216.45 546.112 214.548 542.909 213.247C538.544 211.475 542.608 206.81 538.755 203.677V203.667Z" stroke="white" stroke-miterlimit="10"/>
<path d="M580.285 212.786C576.331 214.498 573.018 215.919 569.054 217.631C568.864 214.568 568.323 212.056 568.724 209.703C568.934 208.482 570.716 206.831 571.977 206.651C573.728 206.4 575.68 207.251 577.502 207.791C579.975 208.522 578.013 211.285 580.285 212.796V212.786Z" stroke="white" stroke-miterlimit="10"/>
</svg>
